<?xml version="1.0" encoding="UTF-8" standalone="no"?>
<svg
   xmlns:dc="http://purl.org/dc/elements/1.1/"
   xmlns:cc="http://creativecommons.org/ns#"
   xmlns:rdf="http://www.w3.org/1999/02/22-rdf-syntax-ns#"
   xmlns:svg="http://www.w3.org/2000/svg"
   xmlns="http://www.w3.org/2000/svg"
   xmlns:sodipodi="http://sodipodi.sourceforge.net/DTD/sodipodi-0.dtd"
   xmlns:inkscape="http://www.inkscape.org/namespaces/inkscape"
   inkscape:version="1.0beta1 (32d4812, 2019-09-19)"
   height="860.18353"
   width="1974.2126"
   sodipodi:docname="inventory-architecture.svg"
   id="svg954"
   stroke-miterlimit="10"
   stroke-linecap="square"
   stroke="none"
   fill="none"
   viewBox="0 0 1974.2126 860.18353"
   version="1.1">
  <metadata
     id="metadata960">
    <rdf:RDF>
      <cc:Work
         rdf:about="">
        <dc:format>image/svg+xml</dc:format>
        <dc:type
           rdf:resource="http://purl.org/dc/dcmitype/StillImage" />
        <dc:title></dc:title>
      </cc:Work>
    </rdf:RDF>
  </metadata>
  <defs
     id="defs958" />
  <sodipodi:namedview
     fit-margin-bottom="100"
     fit-margin-right="100"
     fit-margin-left="100"
     fit-margin-top="100"
     lock-margins="true"
     inkscape:current-layer="svg954"
     inkscape:window-maximized="0"
     inkscape:window-y="23"
     inkscape:window-x="0"
     inkscape:cy="379.50656"
     inkscape:cx="635.28553"
     inkscape:zoom="0.35"
     showgrid="false"
     id="namedview956"
     inkscape:window-height="1009"
     inkscape:window-width="1920"
     inkscape:pageshadow="2"
     inkscape:pageopacity="0"
     guidetolerance="10"
     gridtolerance="10"
     objecttolerance="10"
     borderopacity="1"
     inkscape:document-rotation="0"
     bordercolor="#666666"
     pagecolor="#ffffff" />
  <clipPath
     id="p1.0">
    <path
       inkscape:connector-curvature="0"
       id="path833"
       clip-rule="nonzero"
       d="M 0,0 H 2560 V 1440 H 0 Z" />
  </clipPath>
  <path
     fill="#000000"
     fill-opacity="0.0"
     d="m 1308.8898,382.47246 c 68.7401,0 103.1102,-47.65356 137.4804,-95.3071 34.3699,-47.65353 68.7401,-95.30707 137.4802,-95.30707"
     fill-rule="evenodd"
     id="path838"
     inkscape:connector-curvature="0"
     style="opacity:1;stop-opacity:1" />
  <path
     stroke="#5e5e5e"
     stroke-width="3.0"
     stroke-linejoin="round"
     stroke-linecap="butt"
     d="m 1308.8898,382.47246 c 68.7401,0 103.1102,-47.65356 137.4804,-95.3071 17.1849,-23.82675 34.3699,-47.65353 55.8513,-65.52362 10.7406,-8.93503 22.5554,-16.38089 35.9811,-21.59302 6.713,-2.60605 13.8286,-4.65365 21.4143,-6.04977 1.8962,-0.349 3.8221,-0.65732 5.7783,-0.92343 l 0.4922,-0.0655"
     fill-rule="evenodd"
     id="path840"
     inkscape:connector-curvature="0"
     style="opacity:1;stop-opacity:1" />
  <path
     fill="#5e5e5e"
     stroke="#5e5e5e"
     stroke-width="3.0"
     stroke-linecap="butt"
     d="m 1566.2044,197.95506 13.2693,-5.81616 -13.9035,-4.07395 z"
     fill-rule="evenodd"
     id="path842"
     inkscape:connector-curvature="0"
     style="opacity:1;stop-opacity:1" />
  <path
     fill="#000000"
     fill-opacity="0.0"
     d="m 1322.7166,477.2861 c 65.2835,0 97.9252,47.25983 130.5669,94.51965 32.6417,47.25989 65.2835,94.51971 130.5669,94.51971"
     fill-rule="evenodd"
     id="path844"
     inkscape:connector-curvature="0"
     style="opacity:1;stop-opacity:1" />
  <path
     stroke="#5e5e5e"
     stroke-width="3.0"
     stroke-linejoin="round"
     stroke-linecap="butt"
     d="m 1322.7166,477.2861 c 65.2835,0 97.9252,47.25983 130.5669,94.51965 16.3208,23.62994 32.6417,47.25989 53.0428,64.9823 10.2006,8.86121 21.4211,16.24554 34.1718,21.41461 6.3752,2.5846 13.1332,4.61524 20.3374,5.99976 0.9004,0.17309 1.8079,0.33606 2.7227,0.48877 0.4571,0.0764 0.9162,0.15021 1.377,0.22131 0.2305,0.0356 0.4613,0.0706 0.6927,0.10486 l 0.2673,0.0388"
     fill-rule="evenodd"
     id="path846"
     inkscape:connector-curvature="0"
     style="opacity:1;stop-opacity:1" />
  <path
     fill="#5e5e5e"
     stroke="#5e5e5e"
     stroke-width="3.0"
     stroke-linecap="butt"
     d="m 1565.5458,669.99906 13.9298,-3.98285 -13.2309,-5.90289 z"
     fill-rule="evenodd"
     id="path848"
     inkscape:connector-curvature="0"
     style="opacity:1;stop-opacity:1" />
  <path
     fill="#000000"
     fill-opacity="0.0"
     d="m 626.12912,384.14836 h 164.00004 v 59.59058 H 626.12912 Z"
     fill-rule="evenodd"
     id="path850"
     inkscape:connector-curvature="0"
     style="opacity:1;stop-opacity:1" />
  <path
     fill="#ffffff"
     d="m 668.3428,398.95056 v 3.42187 h -16.96875 v 9.65625 h 15.82813 v 3.42188 h -15.82813 v 10.53125 h 17.125 v 3.42187 h -21.17187 v -30.45312 z m 5.83216,8.39062 6.1875,18.39063 h 0.078 l 6.0313,-18.39063 h 3.7812 l -8.0625,22.0625 h -3.8594 l -8.18746,-22.0625 z m 28.5781,-0.5 q 4.75,0 7.375,3.42188 2.625,3.42187 2.625,8.76562 v 0.4375 h -16.5156 v 0.26563 q 0,3.15625 1.8281,5.07812 1.8438,1.90625 5.0469,1.90625 2.4062,0 3.8281,-1.125 1.4375,-1.125 1.875,-3.1875 h 3.5781 q -0.7187,3.67188 -3.2031,5.59375 -2.4844,1.92188 -6.2031,1.92188 -3.4844,0 -5.8906,-1.5625 -2.4063,-1.57813 -3.5469,-4.375 -1.1406,-2.8125 -1.1406,-5.73438 0,-4.875 2.9375,-8.14062 2.9375,-3.26563 7.4062,-3.26563 z m -6.5156,9.42188 h 12.6562 q -0.1562,-2.6875 -1.9375,-4.45313 -1.7812,-1.78125 -4.4531,-1.78125 -2.5,0 -4.2656,1.6875 -1.7656,1.6875 -2,4.54688 z m 30.9424,-9.42188 q 3.9844,0 5.7812,2.04688 1.8125,2.04687 1.8125,5.82812 v 14.6875 h -3.625 v -15.0625 q 0,-1.875 -1.2031,-3.09375 -1.2031,-1.21875 -3.3281,-1.21875 -3.0469,0 -4.7656,1.89063 -1.7188,1.89062 -1.7188,4.89062 v 12.59375 h -3.625 v -22.0625 h 3.4063 v 3.5 h 0.094 q 1.2031,-2.0625 2.9531,-3.03125 1.7657,-0.96875 4.2188,-0.96875 z m 18.0826,-6.09375 v 6.59375 h 4.3906 v 3.21875 h -4.3906 v 13.79688 q 0,1.65625 1.0938,1.75 1.0937,0.0937 2.2812,0.0937 h 1.0156 v 3.20312 h -2.9843 q -2.9844,0 -4.0157,-1.0625 -1.0156,-1.0625 -1.0156,-3.5625 v -14.21875 h -3.7656 v -3.21875 h 3.7656 v -6.59375 z m 15.7312,6.09375 q 4.4531,0 6.6094,1.73438 2.1719,1.73437 2.3906,5.17187 h -3.625 v -0.0469 q -0.1562,-1.75 -1.5469,-2.70313 -1.375,-0.96875 -3.5625,-0.96875 -2.1875,0 -3.4531,0.75 -1.25,0.73438 -1.25,2.0625 0,1.21875 1.1094,1.98438 1.125,0.76562 3.375,1.25 l 3.4062,0.76562 q 3.2032,0.71875 4.875,2.1875 1.6719,1.45313 1.6719,3.9375 0,3.25 -2.5312,5.10938 -2.5157,1.84375 -6.8594,1.84375 -4.2344,0 -6.7188,-1.89063 -2.4687,-1.89062 -2.6406,-5.57812 h 3.6406 q 0.062,2.0625 1.625,3.17187 1.5625,1.09375 4.2969,1.09375 2.625,0 3.9688,-0.82812 1.3593,-0.84375 1.3593,-2.46875 0,-1.46875 -1.3437,-2.32813 -1.3438,-0.875 -5.5,-1.70312 -4.1719,-0.8125 -5.875,-2.29688 -1.6875,-1.5 -1.6875,-3.96875 0,-2.90625 2.3437,-4.59375 2.3594,-1.6875 5.9219,-1.6875 z"
     fill-rule="nonzero"
     id="path852"
     inkscape:connector-curvature="0"
     style="opacity:1;stop-opacity:1" />
  <path
     fill="#9a403e"
     d="m 656.62991,368.00266 h 177.31235 c 24.4817,0 44.328,27.35052 44.328,61.08923 0,33.73865 -19.8463,61.08924 -44.328,61.08924 H 656.62991 v 0 c -24.48169,0 -44.32806,-27.35059 -44.32806,-61.08924 0,-33.73871 19.84637,-61.08923 44.32806,-61.08923 z"
     fill-rule="evenodd"
     id="path854"
     inkscape:connector-curvature="0"
     style="opacity:1;stop-opacity:1" />
  <path
     fill="#000000"
     fill-opacity="0.0"
     d="m 833.94226,490.18112 c -24.4817,0 -44.3281,-27.35059 -44.3281,-61.08923 0,-33.73871 19.8464,-61.08924 44.3281,-61.08924"
     fill-rule="evenodd"
     id="path856"
     inkscape:connector-curvature="0"
     style="opacity:1;stop-opacity:1" />
  <path
     fill="#000000"
     fill-opacity="0.0"
     d="m 656.62991,368.00266 h 177.31235 c 24.4817,0 44.328,27.35052 44.328,61.08923 0,33.73865 -19.8463,61.08924 -44.328,61.08924 H 656.62991 v 0 c -24.48169,0 -44.32806,-27.35059 -44.32806,-61.08924 0,-33.73871 19.84637,-61.08923 44.32806,-61.08923 z"
     fill-rule="evenodd"
     id="path858"
     inkscape:connector-curvature="0"
     style="opacity:1;stop-opacity:1" />
  <path
     stroke="#ffffff"
     stroke-width="4.0"
     stroke-linejoin="round"
     stroke-linecap="butt"
     d="m 833.94226,490.18112 c -24.4817,0 -44.3281,-27.35059 -44.3281,-61.08923 0,-33.73871 19.8464,-61.08924 44.3281,-61.08924"
     fill-rule="evenodd"
     id="path860"
     inkscape:connector-curvature="0"
     style="opacity:1;stop-opacity:1" />
  <path
     stroke="#ffffff"
     stroke-width="4.0"
     stroke-linejoin="round"
     stroke-linecap="butt"
     d="m 656.62991,368.00266 h 177.31235 c 24.4817,0 44.328,27.35052 44.328,61.08923 0,33.73865 -19.8463,61.08924 -44.328,61.08924 H 656.62991 v 0 c -24.48169,0 -44.32806,-27.35059 -44.32806,-61.08924 0,-33.73871 19.84637,-61.08923 44.32806,-61.08923 z"
     fill-rule="evenodd"
     id="path862"
     inkscape:connector-curvature="0"
     style="opacity:1;stop-opacity:1" />
  <path
     fill="#ffffff"
     d="m 691.30176,430.29626 h -9.8594 v 8.0625 h 11.4531 v 2.45313 h -14.4531 v -22.75 h 14.2969 v 2.46875 h -11.2969 v 7.3125 h 9.8594 z m 10.0469,6.59375 4.1875,-12.98437 h 2.9531 l -6.0625,16.90625 h -2.2031 l -6.1251,-16.90625 h 2.9532 z m 16.7344,4.23438 q -3.4375,0 -5.5938,-2.25 -2.1562,-2.26563 -2.1562,-6.04688 v -0.53125 q 0,-2.51562 0.9531,-4.48437 0.9687,-1.98438 2.6875,-3.09375 1.7344,-1.125 3.75,-1.125 3.2969,0 5.125,2.17187 1.8281,2.17188 1.8281,6.21875 v 1.20313 h -11.4531 q 0.062,2.5 1.4531,4.04687 1.4063,1.53125 3.5625,1.53125 1.5313,0 2.5938,-0.625 1.0625,-0.625 1.8593,-1.65625 l 1.7657,1.375 q -2.125,3.26563 -6.375,3.26563 z m -0.3594,-15.15625 q -1.75,0 -2.9375,1.28125 -1.1875,1.26562 -1.4688,3.5625 h 8.4688 v -0.21875 q -0.125,-2.20313 -1.1875,-3.40625 -1.0625,-1.21875 -2.875,-1.21875 z m 13.0312,-2.0625 0.094,2.125 q 1.9375,-2.4375 5.0625,-2.4375 5.3594,0 5.4062,6.04687 v 11.17188 h -2.8906 v -11.1875 q -0.016,-1.82813 -0.8437,-2.70313 -0.8125,-0.875 -2.5469,-0.875 -1.4063,0 -2.4688,0.75 -1.0625,0.75 -1.6562,1.96875 v 12.04688 h -2.8906 v -16.90625 z m 18.8438,-4.09375 v 4.09375 h 3.1562 v 2.23437 h -3.1562 v 10.48438 q 0,1.01562 0.4219,1.53125 0.4218,0.5 1.4375,0.5 0.5,0 1.375,-0.1875 v 2.34375 q -1.1407,0.3125 -2.2188,0.3125 -1.9375,0 -2.9219,-1.17188 -0.9843,-1.17187 -0.9843,-3.32812 v -10.48438 h -3.0782 v -2.23437 h 3.0782 v -4.09375 z m 16.375,16.51562 q 0,-1.17187 -0.8906,-1.8125 -0.875,-0.65625 -3.0782,-1.125 -2.1875,-0.46875 -3.4843,-1.125 -1.2813,-0.65625 -1.9063,-1.5625 -0.6094,-0.90625 -0.6094,-2.15625 0,-2.07812 1.75,-3.51562 1.7657,-1.4375 4.5,-1.4375 2.875,0 4.6563,1.48437 1.7969,1.48438 1.7969,3.79688 h -2.9063 q 0,-1.1875 -1.0156,-2.04688 -1,-0.85937 -2.5313,-0.85937 -1.5781,0 -2.4687,0.6875 -0.8906,0.6875 -0.8906,1.79687 0,1.04688 0.8281,1.57813 0.8281,0.53125 2.9844,1.01562 2.1718,0.48438 3.5156,1.15625 1.3437,0.67188 1.9844,1.625 0.6562,0.9375 0.6562,2.29688 0,2.26562 -1.8125,3.64062 -1.8125,1.35938 -4.7031,1.35938 -2.0313,0 -3.5938,-0.71875 -1.5625,-0.71875 -2.4531,-2 -0.875,-1.29688 -0.875,-2.79688 h 2.8906 q 0.078,1.45313 1.1563,2.3125 1.0937,0.84375 2.875,0.84375 1.6406,0 2.625,-0.65625 1,-0.67187 1,-1.78125 z"
     fill-rule="nonzero"
     id="path864"
     inkscape:connector-curvature="0"
     style="opacity:1;stop-opacity:1" />
  <path
     fill="#f79646"
     d="M 100,100 H 390.3622 V 283.71652 H 100 Z"
     fill-rule="evenodd"
     id="path866"
     inkscape:connector-curvature="0"
     style="opacity:1;stop-opacity:1" />
  <path
     fill="#ffffff"
     d="m 226.14206,154.93766 q 0,3.34375 -1.125,5.84375 -1.125,2.48438 -3.1875,3.79688 -2.0625,1.3125 -4.8125,1.3125 -2.6875,0 -4.76562,-1.3125 -2.07813,-1.32813 -3.23438,-3.76563 -1.14062,-2.45312 -1.17187,-5.67187 v -1.64063 q 0,-3.28125 1.14062,-5.79687 1.14063,-2.51563 3.21875,-3.84375 2.09375,-1.34375 4.78125,-1.34375 2.73438,0 4.8125,1.32812 2.09375,1.3125 3.21875,3.82813 1.125,2.5 1.125,5.82812 z m -2.98437,-1.46875 q 0,-4.04687 -1.625,-6.20312 -1.625,-2.17188 -4.54688,-2.17188 -2.84375,0 -4.48437,2.17188 -1.625,2.15625 -1.67188,6 v 1.67187 q 0,3.92188 1.64063,6.17188 1.65625,2.23437 4.54687,2.23437 2.90625,0 4.5,-2.10937 1.59375,-2.125 1.64063,-6.07813 z m 15.20312,-2.20312 q -0.65625,-0.10938 -1.42187,-0.10938 -2.84375,0 -3.85938,2.42188 v 12 h -2.89062 v -16.90625 h 2.8125 l 0.0469,1.95312 q 1.42188,-2.26562 4.03125,-2.26562 0.84375,0 1.28125,0.21875 z m 1.65625,5.71875 q 0,-3.89063 1.84375,-6.25 1.84375,-2.375 4.82813,-2.375 2.96875,0 4.70312,2.03125 v -8.8125 h 2.89063 v 24 h -2.65625 l -0.14063,-1.8125 q -1.73437,2.125 -4.82812,2.125 -2.9375,0 -4.79688,-2.40625 -1.84375,-2.40625 -1.84375,-6.28125 z m 2.89063,0.32812 q 0,2.875 1.1875,4.5 1.1875,1.625 3.28125,1.625 2.75,0 4.01562,-2.46875 v -7.76562 q -1.29687,-2.39063 -3.98437,-2.39063 -2.125,0 -3.3125,1.64063 -1.1875,1.64062 -1.1875,4.85937 z m 22.875,8.57813 q -3.4375,0 -5.59375,-2.25 -2.15625,-2.26563 -2.15625,-6.04688 v -0.53125 q 0,-2.51562 0.95312,-4.48437 0.96875,-1.98438 2.6875,-3.09375 1.73438,-1.125 3.75,-1.125 3.29688,0 5.125,2.17187 1.82813,2.17188 1.82813,6.21875 v 1.20313 h -11.45313 q 0.0625,2.5 1.45313,4.04687 1.40625,1.53125 3.5625,1.53125 1.53125,0 2.59375,-0.625 1.0625,-0.625 1.85937,-1.65625 l 1.76563,1.375 q -2.125,3.26563 -6.375,3.26563 z m -0.35938,-15.15625 q -1.75,0 -2.9375,1.28125 -1.1875,1.26562 -1.46875,3.5625 h 8.46875 v -0.21875 q -0.125,-2.20313 -1.1875,-3.40625 -1.0625,-1.21875 -2.875,-1.21875 z m 18.46875,0.53125 q -0.65625,-0.10938 -1.42187,-0.10938 -2.84375,0 -3.85938,2.42188 v 12 h -2.89062 v -16.90625 h 2.8125 l 0.0469,1.95312 q 1.42188,-2.26562 4.03125,-2.26562 0.84375,0 1.28125,0.21875 z"
     fill-rule="nonzero"
     id="path868"
     inkscape:connector-curvature="0"
     style="opacity:1;stop-opacity:1" />
  <path
     fill="#ffffff"
     d="m 157.48581,180.82828 7.4375,18.5625 7.4375,-18.5625 h 3.89062 v 22.75 h -3 v -8.85937 l 0.28125,-9.5625 -7.46875,18.42187 h -2.29687 l -7.45313,-18.375 0.29688,9.51563 v 8.85937 h -3 v -22.75 z m 34.04688,22.75 q -0.25,-0.5 -0.40625,-1.78125 -2.01563,2.09375 -4.8125,2.09375 -2.5,0 -4.10938,-1.40625 -1.59375,-1.42187 -1.59375,-3.59375 0,-2.64062 2,-4.09375 2.01563,-1.46875 5.65625,-1.46875 h 2.8125 v -1.32812 q 0,-1.51563 -0.90625,-2.40625 -0.90625,-0.90625 -2.67187,-0.90625 -1.54688,0 -2.59375,0.78125 -1.04688,0.78125 -1.04688,1.89062 h -2.90625 q 0,-1.26562 0.89063,-2.4375 0.90625,-1.1875 2.4375,-1.875 1.54687,-0.6875 3.39062,-0.6875 2.92188,0 4.57813,1.46875 1.65625,1.45313 1.71875,4.01563 v 7.78125 q 0,2.32812 0.59375,3.70312 v 0.25 z m -4.79688,-2.20312 q 1.35938,0 2.57813,-0.70313 1.21875,-0.70312 1.76562,-1.82812 v -3.46875 h -2.26562 q -5.3125,0 -5.3125,3.10937 0,1.35938 0.90625,2.125 0.90625,0.76563 2.32812,0.76563 z m 14.5,-14.70313 0.0937,2.125 q 1.9375,-2.4375 5.0625,-2.4375 5.35938,0 5.40625,6.04688 v 11.17187 h -2.89062 v -11.1875 q -0.0156,-1.82812 -0.84375,-2.70312 -0.8125,-0.875 -2.54688,-0.875 -1.40625,0 -2.46875,0.75 -1.0625,0.75 -1.65625,1.96875 v 12.04687 h -2.89062 v -16.90625 z m 25.35938,16.90625 q -0.25,-0.5 -0.40625,-1.78125 -2.01563,2.09375 -4.8125,2.09375 -2.5,0 -4.10938,-1.40625 -1.59375,-1.42187 -1.59375,-3.59375 0,-2.64062 2,-4.09375 2.01563,-1.46875 5.65625,-1.46875 h 2.8125 v -1.32812 q 0,-1.51563 -0.90625,-2.40625 -0.90625,-0.90625 -2.67187,-0.90625 -1.54688,0 -2.59375,0.78125 -1.04688,0.78125 -1.04688,1.89062 h -2.90625 q 0,-1.26562 0.89063,-2.4375 0.90625,-1.1875 2.4375,-1.875 1.54687,-0.6875 3.39062,-0.6875 2.92188,0 4.57813,1.46875 1.65625,1.45313 1.71875,4.01563 v 7.78125 q 0,2.32812 0.59375,3.70312 v 0.25 z m -4.79688,-2.20312 q 1.35938,0 2.57813,-0.70313 1.21875,-0.70312 1.76562,-1.82812 v -3.46875 h -2.26562 q -5.3125,0 -5.3125,3.10937 0,1.35938 0.90625,2.125 0.90625,0.76563 2.32812,0.76563 z m 11.07813,-6.39063 q 0,-3.95312 1.82812,-6.28125 1.82813,-2.34375 4.84375,-2.34375 3.09375,0 4.82813,2.1875 l 0.14062,-1.875 h 2.64063 v 16.5 q 0,3.28125 -1.95313,5.17188 -1.9375,1.89062 -5.21875,1.89062 -1.82812,0 -3.57812,-0.78125 -1.75,-0.78125 -2.67188,-2.14062 l 1.5,-1.73438 q 1.85938,2.29688 4.54688,2.29688 2.10937,0 3.28125,-1.1875 1.1875,-1.1875 1.1875,-3.34375 v -1.45313 q -1.73438,2 -4.73438,2 -2.96875,0 -4.8125,-2.39062 -1.82812,-2.39063 -1.82812,-6.51563 z m 2.90625,0.32813 q 0,2.85937 1.17187,4.5 1.17188,1.625 3.28125,1.625 2.73438,0 4.01563,-2.48438 v -7.71875 q -1.32813,-2.42187 -3.98438,-2.42187 -2.10937,0 -3.29687,1.64062 -1.1875,1.64063 -1.1875,4.85938 z m 22.75,8.57812 q -3.4375,0 -5.59375,-2.25 -2.15625,-2.26562 -2.15625,-6.04687 v -0.53125 q 0,-2.51563 0.95312,-4.48438 0.96875,-1.98437 2.6875,-3.09375 1.73438,-1.125 3.75,-1.125 3.29688,0 5.125,2.17188 1.82813,2.17187 1.82813,6.21875 v 1.20312 h -11.45313 q 0.0625,2.5 1.45313,4.04688 1.40625,1.53125 3.5625,1.53125 1.53125,0 2.59375,-0.625 1.0625,-0.625 1.85937,-1.65625 l 1.76563,1.375 q -2.125,3.26562 -6.375,3.26562 z m -0.35938,-15.15625 q -1.75,0 -2.9375,1.28125 -1.1875,1.26563 -1.46875,3.5625 h 8.46875 v -0.21875 q -0.125,-2.20312 -1.1875,-3.40625 -1.0625,-1.21875 -2.875,-1.21875 z m 13.01563,-2.0625 0.0781,1.875 q 1.85938,-2.1875 5.01563,-2.1875 3.54687,0 4.82812,2.71875 0.84375,-1.21875 2.1875,-1.96875 1.35938,-0.75 3.20313,-0.75 5.5625,0 5.65625,5.89063 v 11.32812 h -2.89063 v -11.15625 q 0,-1.8125 -0.82812,-2.70312 -0.82813,-0.90625 -2.78125,-0.90625 -1.60938,0 -2.67188,0.96875 -1.0625,0.95312 -1.23437,2.57812 v 11.21875 h -2.90625 v -11.07812 q 0,-3.6875 -3.60938,-3.6875 -2.84375,0 -3.89062,2.42187 v 12.34375 h -2.89063 v -16.90625 z m 32.34375,17.21875 q -3.4375,0 -5.59375,-2.25 -2.15625,-2.26562 -2.15625,-6.04687 v -0.53125 q 0,-2.51563 0.95312,-4.48438 0.96875,-1.98437 2.6875,-3.09375 1.73438,-1.125 3.75,-1.125 3.29688,0 5.125,2.17188 1.82813,2.17187 1.82813,6.21875 v 1.20312 h -11.45313 q 0.0625,2.5 1.45313,4.04688 1.40625,1.53125 3.5625,1.53125 1.53125,0 2.59375,-0.625 1.0625,-0.625 1.85937,-1.65625 l 1.76563,1.375 q -2.125,3.26562 -6.375,3.26562 z m -0.35938,-15.15625 q -1.75,0 -2.9375,1.28125 -1.1875,1.26563 -1.46875,3.5625 h 8.46875 v -0.21875 q -0.125,-2.20312 -1.1875,-3.40625 -1.0625,-1.21875 -2.875,-1.21875 z m 13.03125,-2.0625 0.0937,2.125 q 1.9375,-2.4375 5.0625,-2.4375 5.35938,0 5.40625,6.04688 v 11.17187 h -2.89062 v -11.1875 q -0.0156,-1.82812 -0.84375,-2.70312 -0.8125,-0.875 -2.54688,-0.875 -1.40625,0 -2.46875,0.75 -1.0625,0.75 -1.65625,1.96875 v 12.04687 h -2.89062 v -16.90625 z m 18.84375,-4.09375 v 4.09375 h 3.15625 v 2.23438 h -3.15625 v 10.48437 q 0,1.01563 0.42188,1.53125 0.42187,0.5 1.4375,0.5 0.5,0 1.375,-0.1875 v 2.34375 q -1.14063,0.3125 -2.21875,0.3125 -1.9375,0 -2.92188,-1.17187 -0.98437,-1.17188 -0.98437,-3.32813 v -10.48437 h -3.07813 v -2.23438 h 3.07813 v -4.09375 z"
     fill-rule="nonzero"
     id="path870"
     inkscape:connector-curvature="0"
     style="opacity:1;stop-opacity:1" />
  <path
     fill="#ffffff"
     d="m 201.48581,231.43762 q -3.85937,-1.10938 -5.625,-2.71875 -1.75,-1.625 -1.75,-4 0,-2.6875 2.14063,-4.4375 2.15625,-1.76563 5.59375,-1.76563 2.34375,0 4.17187,0.90625 1.84375,0.90625 2.84375,2.5 1.01563,1.59375 1.01563,3.48438 h -3.01563 q 0,-2.0625 -1.3125,-3.23438 -1.3125,-1.1875 -3.70312,-1.1875 -2.21875,0 -3.46875,0.98438 -1.23438,0.96875 -1.23438,2.70312 0,1.39063 1.17188,2.35938 1.1875,0.95312 4.01562,1.75 2.84375,0.79687 4.4375,1.76562 1.60938,0.95313 2.375,2.23438 0.78125,1.28125 0.78125,3.01562 0,2.76563 -2.15625,4.4375 -2.15625,1.65625 -5.76562,1.65625 -2.34375,0 -4.375,-0.89062 -2.03125,-0.90625 -3.14063,-2.46875 -1.09375,-1.5625 -1.09375,-3.54688 h 3.01563 q 0,2.0625 1.51562,3.26563 1.53125,1.1875 4.07813,1.1875 2.375,0 3.64062,-0.96875 1.26563,-0.96875 1.26563,-2.64063 0,-1.67187 -1.17188,-2.57812 -1.17187,-0.92188 -4.25,-1.8125 z m 17.35938,5.90625 3.9375,-12.67188 h 3.09375 l -6.79688,19.51563 q -1.57812,4.21875 -5.01562,4.21875 l -0.54688,-0.0469 -1.07812,-0.20312 v -2.34375 l 0.78125,0.0625 q 1.46875,0 2.28125,-0.59375 0.82812,-0.59375 1.35937,-2.17188 l 0.64063,-1.71875 -6.03125,-16.71875 h 3.15625 z m 19.45312,-0.25 q 0,-1.17188 -0.89062,-1.8125 -0.875,-0.65625 -3.07813,-1.125 -2.1875,-0.46875 -3.48437,-1.125 -1.28125,-0.65625 -1.90625,-1.5625 -0.60938,-0.90625 -0.60938,-2.15625 0,-2.07813 1.75,-3.51563 1.76563,-1.4375 4.5,-1.4375 2.875,0 4.65625,1.48438 1.79688,1.48437 1.79688,3.79687 h -2.90625 q 0,-1.1875 -1.01563,-2.04687 -1,-0.85938 -2.53125,-0.85938 -1.57812,0 -2.46875,0.6875 -0.89062,0.6875 -0.89062,1.79688 0,1.04687 0.82812,1.57812 0.82813,0.53125 2.98438,1.01563 2.17187,0.48437 3.51562,1.15625 1.34375,0.67187 1.98438,1.625 0.65625,0.9375 0.65625,2.29687 0,2.26563 -1.8125,3.64063 -1.8125,1.35937 -4.70313,1.35937 -2.03125,0 -3.59375,-0.71875 -1.5625,-0.71875 -2.45312,-2 -0.875,-1.29687 -0.875,-2.79687 h 2.89062 q 0.0781,1.45312 1.15625,2.3125 1.09375,0.84375 2.875,0.84375 1.64063,0 2.625,-0.65625 1,-0.67188 1,-1.78125 z m 10.57813,-16.51563 v 4.09375 h 3.15625 v 2.23438 h -3.15625 v 10.48437 q 0,1.01563 0.42187,1.53125 0.42188,0.5 1.4375,0.5 0.5,0 1.375,-0.1875 v 2.34375 q -1.14062,0.3125 -2.21875,0.3125 -1.9375,0 -2.92187,-1.17187 -0.98438,-1.17188 -0.98438,-3.32813 v -10.48437 h -3.07812 v -2.23438 h 3.07812 v -4.09375 z m 13.54687,21.3125 q -3.4375,0 -5.59375,-2.25 -2.15625,-2.26562 -2.15625,-6.04687 v -0.53125 q 0,-2.51563 0.95313,-4.48438 0.96875,-1.98437 2.6875,-3.09375 1.73437,-1.125 3.75,-1.125 3.29687,0 5.125,2.17188 1.82812,2.17187 1.82812,6.21875 v 1.20312 h -11.45312 q 0.0625,2.5 1.45312,4.04688 1.40625,1.53125 3.5625,1.53125 1.53125,0 2.59375,-0.625 1.0625,-0.625 1.85938,-1.65625 l 1.76562,1.375 q -2.125,3.26562 -6.375,3.26562 z m -0.35937,-15.15625 q -1.75,0 -2.9375,1.28125 -1.1875,1.26563 -1.46875,3.5625 h 8.46875 v -0.21875 q -0.125,-2.20312 -1.1875,-3.40625 -1.0625,-1.21875 -2.875,-1.21875 z m 13.01562,-2.0625 0.0781,1.875 q 1.85937,-2.1875 5.01562,-2.1875 3.54688,0 4.82813,2.71875 0.84375,-1.21875 2.1875,-1.96875 1.35937,-0.75 3.20312,-0.75 5.5625,0 5.65625,5.89063 v 11.32812 h -2.89062 v -11.15625 q 0,-1.8125 -0.82813,-2.70312 -0.82812,-0.90625 -2.78125,-0.90625 -1.60937,0 -2.67187,0.96875 -1.0625,0.95312 -1.23438,2.57812 v 11.21875 h -2.90625 v -11.07812 q 0,-3.6875 -3.60937,-3.6875 -2.84375,0 -3.89063,2.42187 v 12.34375 h -2.89062 v -16.90625 z"
     fill-rule="nonzero"
     id="path872"
     inkscape:connector-curvature="0"
     style="opacity:1;stop-opacity:1" />
  <path
     fill="#f79646"
     d="M 100,337.23361 H 390.3622 V 520.9501 H 100 Z"
     fill-rule="evenodd"
     id="path874"
     inkscape:connector-curvature="0"
     style="opacity:1;stop-opacity:1" />
  <path
     fill="#ffffff"
     d="m 172.86081,433.63996 0.4375,3 0.64062,-2.70312 4.5,-15.875 h 2.53125 l 4.39063,15.875 0.625,2.75 0.48438,-3.0625 3.53125,-15.5625 h 3.01562 l -5.51562,22.75 h -2.73438 l -4.6875,-16.57813 -0.35937,-1.73437 -0.35938,1.73437 -4.85937,16.57813 h -2.73438 l -5.5,-22.75 h 3 z m 32.95313,7.17188 q -0.25,-0.5 -0.40625,-1.78125 -2.01563,2.09375 -4.8125,2.09375 -2.5,0 -4.10938,-1.40625 -1.59375,-1.42188 -1.59375,-3.59375 0,-2.64063 2,-4.09375 2.01563,-1.46875 5.65625,-1.46875 h 2.8125 v -1.32813 q 0,-1.51562 -0.90625,-2.40625 -0.90625,-0.90625 -2.67187,-0.90625 -1.54688,0 -2.59375,0.78125 -1.04688,0.78125 -1.04688,1.89063 h -2.90625 q 0,-1.26563 0.89063,-2.4375 0.90625,-1.1875 2.4375,-1.875 1.54687,-0.6875 3.39062,-0.6875 2.92188,0 4.57813,1.46875 1.65625,1.45312 1.71875,4.01562 v 7.78125 q 0,2.32813 0.59375,3.70313 v 0.25 z m -4.79688,-2.20313 q 1.35938,0 2.57813,-0.70312 1.21875,-0.70313 1.76562,-1.82813 v -3.46875 h -2.26562 q -5.3125,0 -5.3125,3.10938 0,1.35937 0.90625,2.125 0.90625,0.76562 2.32812,0.76562 z m 19.9375,-12.10937 q -0.65625,-0.10938 -1.42187,-0.10938 -2.84375,0 -3.85938,2.42188 v 12 h -2.89062 v -16.90625 h 2.8125 l 0.0469,1.95312 q 1.42188,-2.26562 4.03125,-2.26562 0.84375,0 1.28125,0.21875 z m 9.375,14.625 q -3.4375,0 -5.59375,-2.25 -2.15625,-2.26563 -2.15625,-6.04688 v -0.53125 q 0,-2.51562 0.95313,-4.48437 0.96875,-1.98438 2.6875,-3.09375 1.73437,-1.125 3.75,-1.125 3.29687,0 5.125,2.17187 1.82812,2.17188 1.82812,6.21875 v 1.20313 h -11.45312 q 0.0625,2.5 1.45312,4.04687 1.40625,1.53125 3.5625,1.53125 1.53125,0 2.59375,-0.625 1.0625,-0.625 1.85938,-1.65625 l 1.76562,1.375 q -2.125,3.26563 -6.375,3.26563 z m -0.35937,-15.15625 q -1.75,0 -2.9375,1.28125 -1.1875,1.26562 -1.46875,3.5625 h 8.46875 v -0.21875 q -0.125,-2.20313 -1.1875,-3.40625 -1.0625,-1.21875 -2.875,-1.21875 z m 13.1875,-0.0156 q 1.92187,-2.35937 5,-2.35937 5.35937,0 5.40625,6.04687 v 11.17188 h -2.89063 v -11.1875 q -0.0156,-1.82813 -0.84375,-2.70313 -0.8125,-0.875 -2.54687,-0.875 -1.40625,0 -2.46875,0.75 -1.0625,0.75 -1.65625,1.96875 v 12.04688 h -2.89063 v -24 h 2.89063 z m 13.96875,6.25 q 0,-2.48437 0.96875,-4.46875 0.98437,-1.98437 2.71875,-3.0625 1.75,-1.07812 3.98437,-1.07812 3.45313,0 5.57813,2.39062 2.14062,2.39063 2.14062,6.35938 v 0.20312 q 0,2.46875 -0.95312,4.4375 -0.9375,1.95313 -2.70313,3.04688 -1.75,1.09375 -4.03125,1.09375 -3.4375,0 -5.57812,-2.39063 -2.125,-2.39062 -2.125,-6.32812 z m 2.90625,0.34375 q 0,2.8125 1.29687,4.51563 1.3125,1.70312 3.5,1.70312 2.20313,0 3.5,-1.71875 1.29688,-1.73437 1.29688,-4.84375 0,-2.78125 -1.32813,-4.5 -1.3125,-1.73437 -3.5,-1.73437 -2.14062,0 -3.45312,1.70312 -1.3125,1.70313 -1.3125,4.875 z m 26.54687,6.59375 q -1.6875,1.98438 -4.95312,1.98438 -2.70313,0 -4.125,-1.5625 -1.40625,-1.57813 -1.42188,-4.65625 v -11 h 2.89063 v 10.92187 q 0,3.84375 3.125,3.84375 3.3125,0 4.40625,-2.46875 v -12.29687 h 2.89062 v 16.90625 h -2.75 z m 17.04688,-2.8125 q 0,-1.17187 -0.89063,-1.8125 -0.875,-0.65625 -3.07812,-1.125 -2.1875,-0.46875 -3.48438,-1.125 -1.28125,-0.65625 -1.90625,-1.5625 -0.60937,-0.90625 -0.60937,-2.15625 0,-2.07812 1.75,-3.51562 1.76562,-1.4375 4.5,-1.4375 2.875,0 4.65625,1.48437 1.79687,1.48438 1.79687,3.79688 h -2.90625 q 0,-1.1875 -1.01562,-2.04688 -1,-0.85937 -2.53125,-0.85937 -1.57813,0 -2.46875,0.6875 -0.89063,0.6875 -0.89063,1.79687 0,1.04688 0.82813,1.57813 0.82812,0.53125 2.98437,1.01562 2.17188,0.48438 3.51563,1.15625 1.34375,0.67188 1.98437,1.625 0.65625,0.9375 0.65625,2.29688 0,2.26562 -1.8125,3.64062 -1.8125,1.35938 -4.70312,1.35938 -2.03125,0 -3.59375,-0.71875 -1.5625,-0.71875 -2.45313,-2 -0.875,-1.29688 -0.875,-2.79688 h 2.89063 q 0.0781,1.45313 1.15625,2.3125 1.09375,0.84375 2.875,0.84375 1.64062,0 2.625,-0.65625 1,-0.67187 1,-1.78125 z m 13.67187,4.79688 q -3.4375,0 -5.59375,-2.25 -2.15625,-2.26563 -2.15625,-6.04688 v -0.53125 q 0,-2.51562 0.95313,-4.48437 0.96875,-1.98438 2.6875,-3.09375 1.73437,-1.125 3.75,-1.125 3.29687,0 5.125,2.17187 1.82812,2.17188 1.82812,6.21875 v 1.20313 h -11.45312 q 0.0625,2.5 1.45312,4.04687 1.40625,1.53125 3.5625,1.53125 1.53125,0 2.59375,-0.625 1.0625,-0.625 1.85938,-1.65625 l 1.76562,1.375 q -2.125,3.26563 -6.375,3.26563 z m -0.35937,-15.15625 q -1.75,0 -2.9375,1.28125 -1.1875,1.26562 -1.46875,3.5625 h 8.46875 v -0.21875 q -0.125,-2.20313 -1.1875,-3.40625 -1.0625,-1.21875 -2.875,-1.21875 z"
     fill-rule="nonzero"
     id="path876"
     inkscape:connector-curvature="0"
     style="opacity:1;stop-opacity:1" />
  <path
     fill="#f79646"
     d="M 100,574.46719 H 390.3622 V 758.18374 H 100 Z"
     fill-rule="evenodd"
     id="path878"
     inkscape:connector-curvature="0"
     style="opacity:1;stop-opacity:1" />
  <path
     fill="#ffffff"
     d="m 215.72016,629.90481 q -3.85938,-1.10938 -5.625,-2.71875 -1.75,-1.625 -1.75,-4 0,-2.6875 2.14062,-4.4375 2.15625,-1.76563 5.59375,-1.76563 2.34375,0 4.17188,0.90625 1.84375,0.90625 2.84375,2.5 1.01562,1.59375 1.01562,3.48438 h -3.01562 q 0,-2.0625 -1.3125,-3.23438 -1.3125,-1.1875 -3.70313,-1.1875 -2.21875,0 -3.46875,0.98438 -1.23437,0.96875 -1.23437,2.70312 0,1.39063 1.17187,2.35938 1.1875,0.95312 4.01563,1.75 2.84375,0.79687 4.4375,1.76562 1.60937,0.95313 2.375,2.23438 0.78125,1.28125 0.78125,3.01562 0,2.76563 -2.15625,4.4375 -2.15625,1.65625 -5.76563,1.65625 -2.34375,0 -4.375,-0.89062 -2.03125,-0.90625 -3.14062,-2.46875 -1.09375,-1.5625 -1.09375,-3.54688 h 3.01562 q 0,2.0625 1.51563,3.26563 1.53125,1.1875 4.07812,1.1875 2.375,0 3.64063,-0.96875 1.26562,-0.96875 1.26562,-2.64063 0,-1.67187 -1.17187,-2.57812 -1.17188,-0.92188 -4.25,-1.8125 z m 22.26562,10.14062 q -0.25,-0.5 -0.40625,-1.78125 -2.01562,2.09375 -4.8125,2.09375 -2.5,0 -4.10937,-1.40625 -1.59375,-1.42187 -1.59375,-3.59375 0,-2.64062 2,-4.09375 2.01562,-1.46875 5.65625,-1.46875 h 2.8125 v -1.32812 q 0,-1.51563 -0.90625,-2.40625 -0.90625,-0.90625 -2.67188,-0.90625 -1.54687,0 -2.59375,0.78125 -1.04687,0.78125 -1.04687,1.89062 h -2.90625 q 0,-1.26562 0.89062,-2.4375 0.90625,-1.1875 2.4375,-1.875 1.54688,-0.6875 3.39063,-0.6875 2.92187,0 4.57812,1.46875 1.65625,1.45313 1.71875,4.01563 v 7.78125 q 0,2.32812 0.59375,3.70312 v 0.25 z m -4.79687,-2.20312 q 1.35937,0 2.57812,-0.70313 1.21875,-0.70312 1.76563,-1.82812 v -3.46875 h -2.26563 q -5.3125,0 -5.3125,3.10937 0,1.35938 0.90625,2.125 0.90625,0.76563 2.32813,0.76563 z m 14.90625,2.20312 h -2.89063 v -24 h 2.89063 z m 11.64062,0.3125 q -3.4375,0 -5.59375,-2.25 -2.15625,-2.26562 -2.15625,-6.04687 v -0.53125 q 0,-2.51563 0.95313,-4.48438 0.96875,-1.98437 2.6875,-3.09375 1.73437,-1.125 3.75,-1.125 3.29687,0 5.125,2.17188 1.82812,2.17187 1.82812,6.21875 v 1.20312 h -11.45312 q 0.0625,2.5 1.45312,4.04688 1.40625,1.53125 3.5625,1.53125 1.53125,0 2.59375,-0.625 1.0625,-0.625 1.85938,-1.65625 l 1.76562,1.375 q -2.125,3.26562 -6.375,3.26562 z m -0.35937,-15.15625 q -1.75,0 -2.9375,1.28125 -1.1875,1.26563 -1.46875,3.5625 h 8.46875 v -0.21875 q -0.125,-2.20312 -1.1875,-3.40625 -1.0625,-1.21875 -2.875,-1.21875 z m 20.14062,10.35938 q 0,-1.17188 -0.89062,-1.8125 -0.875,-0.65625 -3.07813,-1.125 -2.1875,-0.46875 -3.48437,-1.125 -1.28125,-0.65625 -1.90625,-1.5625 -0.60938,-0.90625 -0.60938,-2.15625 0,-2.07813 1.75,-3.51563 1.76563,-1.4375 4.5,-1.4375 2.875,0 4.65625,1.48438 1.79688,1.48437 1.79688,3.79687 h -2.90625 q 0,-1.1875 -1.01563,-2.04687 -1,-0.85938 -2.53125,-0.85938 -1.57812,0 -2.46875,0.6875 -0.89062,0.6875 -0.89062,1.79688 0,1.04687 0.82812,1.57812 0.82813,0.53125 2.98438,1.01563 2.17187,0.48437 3.51562,1.15625 1.34375,0.67187 1.98438,1.625 0.65625,0.9375 0.65625,2.29687 0,2.26563 -1.8125,3.64063 -1.8125,1.35937 -4.70313,1.35937 -2.03125,0 -3.59375,-0.71875 -1.5625,-0.71875 -2.45312,-2 -0.875,-1.29687 -0.875,-2.79687 h 2.89062 q 0.0781,1.45312 1.15625,2.3125 1.09375,0.84375 2.875,0.84375 1.64063,0 2.625,-0.65625 1,-0.67188 1,-1.78125 z"
     fill-rule="nonzero"
     id="path880"
     inkscape:connector-curvature="0"
     style="opacity:1;stop-opacity:1" />
  <path
     fill="#ffffff"
     d="m 176.57956,667.99856 h -9.54688 v 10.04687 h -3 v -22.75 h 14.09375 v 2.46875 h -11.09375 v 7.78125 h 9.54688 z m 3.59375,1.4375 q 0,-2.48438 0.96875,-4.46875 0.98437,-1.98438 2.71875,-3.0625 1.75,-1.07813 3.98438,-1.07813 3.45312,0 5.57812,2.39063 2.14063,2.39062 2.14063,6.35937 v 0.20313 q 0,2.46875 -0.95313,4.4375 -0.9375,1.95312 -2.70312,3.04687 -1.75,1.09375 -4.03125,1.09375 -3.4375,0 -5.57813,-2.39062 -2.125,-2.39063 -2.125,-6.32813 z m 2.90625,0.34375 q 0,2.8125 1.29688,4.51562 1.3125,1.70313 3.5,1.70313 2.20312,0 3.5,-1.71875 1.29687,-1.73438 1.29687,-4.84375 0,-2.78125 -1.32812,-4.5 -1.3125,-1.73438 -3.5,-1.73438 -2.14063,0 -3.45313,1.70313 -1.3125,1.70312 -1.3125,4.875 z m 24.28125,-6.04688 q -0.65625,-0.10937 -1.42187,-0.10937 -2.84375,0 -3.85938,2.42187 v 12 h -2.89062 v -16.90625 h 2.8125 l 0.0469,1.95313 q 1.42188,-2.26563 4.03125,-2.26563 0.84375,0 1.28125,0.21875 z m 9.375,14.625 q -3.4375,0 -5.59375,-2.25 -2.15625,-2.26562 -2.15625,-6.04687 v -0.53125 q 0,-2.51563 0.95313,-4.48438 0.96875,-1.98437 2.6875,-3.09375 1.73437,-1.125 3.75,-1.125 3.29687,0 5.125,2.17188 1.82812,2.17187 1.82812,6.21875 v 1.20312 h -11.45312 q 0.0625,2.5 1.45312,4.04688 1.40625,1.53125 3.5625,1.53125 1.53125,0 2.59375,-0.625 1.0625,-0.625 1.85938,-1.65625 l 1.76562,1.375 q -2.125,3.26562 -6.375,3.26562 z m -0.35937,-15.15625 q -1.75,0 -2.9375,1.28125 -1.1875,1.26563 -1.46875,3.5625 h 8.46875 v -0.21875 q -0.125,-2.20312 -1.1875,-3.40625 -1.0625,-1.21875 -2.875,-1.21875 z m 17.07812,12.79688 q 1.54688,0 2.70313,-0.9375 1.15625,-0.9375 1.28125,-2.34375 h 2.73437 q -0.0781,1.45312 -1,2.76562 -0.92187,1.3125 -2.46875,2.09375 -1.53125,0.78125 -3.25,0.78125 -3.45312,0 -5.5,-2.29687 -2.03125,-2.3125 -2.03125,-6.3125 v -0.48438 q 0,-2.46875 0.90625,-4.39062 0.90625,-1.92188 2.59375,-2.98438 1.70313,-1.0625 4.01563,-1.0625 2.84375,0 4.71875,1.70313 1.89062,1.70312 2.01562,4.42187 h -2.73437 q -0.125,-1.64062 -1.25,-2.6875 -1.10938,-1.0625 -2.75,-1.0625 -2.20313,0 -3.42188,1.59375 -1.20312,1.57813 -1.20312,4.57813 v 0.54687 q 0,2.92188 1.20312,4.5 1.20313,1.57813 3.4375,1.57813 z m 20.40625,2.04687 q -0.25,-0.5 -0.40625,-1.78125 -2.01562,2.09375 -4.8125,2.09375 -2.5,0 -4.10937,-1.40625 -1.59375,-1.42187 -1.59375,-3.59375 0,-2.64062 2,-4.09375 2.01562,-1.46875 5.65625,-1.46875 h 2.8125 v -1.32812 q 0,-1.51563 -0.90625,-2.40625 -0.90625,-0.90625 -2.67188,-0.90625 -1.54687,0 -2.59375,0.78125 -1.04687,0.78125 -1.04687,1.89062 h -2.90625 q 0,-1.26562 0.89062,-2.4375 0.90625,-1.1875 2.4375,-1.875 1.54688,-0.6875 3.39063,-0.6875 2.92187,0 4.57812,1.46875 1.65625,1.45313 1.71875,4.01563 v 7.78125 q 0,2.32812 0.59375,3.70312 v 0.25 z m -4.79687,-2.20312 q 1.35937,0 2.57812,-0.70313 1.21875,-0.70312 1.76563,-1.82812 v -3.46875 h -2.26563 q -5.3125,0 -5.3125,3.10937 0,1.35938 0.90625,2.125 0.90625,0.76563 2.32813,0.76563 z m 21.60937,-2.28125 q 0,-1.17188 -0.89062,-1.8125 -0.875,-0.65625 -3.07813,-1.125 -2.1875,-0.46875 -3.48437,-1.125 -1.28125,-0.65625 -1.90625,-1.5625 -0.60938,-0.90625 -0.60938,-2.15625 0,-2.07813 1.75,-3.51563 1.76563,-1.4375 4.5,-1.4375 2.875,0 4.65625,1.48438 1.79688,1.48437 1.79688,3.79687 h -2.90625 q 0,-1.1875 -1.01563,-2.04687 -1,-0.85938 -2.53125,-0.85938 -1.57812,0 -2.46875,0.6875 -0.89062,0.6875 -0.89062,1.79688 0,1.04687 0.82812,1.57812 0.82813,0.53125 2.98438,1.01563 2.17187,0.48437 3.51562,1.15625 1.34375,0.67187 1.98438,1.625 0.65625,0.9375 0.65625,2.29687 0,2.26563 -1.8125,3.64063 -1.8125,1.35937 -4.70313,1.35937 -2.03125,0 -3.59375,-0.71875 -1.5625,-0.71875 -2.45312,-2 -0.875,-1.29687 -0.875,-2.79687 h 2.89062 q 0.0781,1.45312 1.15625,2.3125 1.09375,0.84375 2.875,0.84375 1.64063,0 2.625,-0.65625 1,-0.67188 1,-1.78125 z m 10.57813,-16.51563 v 4.09375 h 3.15625 v 2.23438 h -3.15625 v 10.48437 q 0,1.01563 0.42187,1.53125 0.42188,0.5 1.4375,0.5 0.5,0 1.375,-0.1875 v 2.34375 q -1.14062,0.3125 -2.21875,0.3125 -1.9375,0 -2.92187,-1.17187 -0.98438,-1.17188 -0.98438,-3.32813 v -10.48437 h -3.07812 v -2.23438 h 3.07812 v -4.09375 z m 9.67187,21 h -2.89062 v -16.90625 h 2.89062 z m -3.125,-21.39062 q 0,-0.70313 0.42188,-1.1875 0.4375,-0.48438 1.28125,-0.48438 0.84375,0 1.28125,0.48438 0.4375,0.48437 0.4375,1.1875 0,0.70312 -0.4375,1.17187 -0.4375,0.46875 -1.28125,0.46875 -0.84375,0 -1.28125,-0.46875 -0.42188,-0.46875 -0.42188,-1.17187 z m 10.48438,4.48437 0.0937,2.125 q 1.9375,-2.4375 5.0625,-2.4375 5.35937,0 5.40625,6.04688 v 11.17187 h -2.89063 v -11.1875 q -0.0156,-1.82812 -0.84375,-2.70312 -0.8125,-0.875 -2.54687,-0.875 -1.40625,0 -2.46875,0.75 -1.0625,0.75 -1.65625,1.96875 v 12.04687 h -2.89063 v -16.90625 z m 14.23437,8.3125 q 0,-3.95312 1.82813,-6.28125 1.82812,-2.34375 4.84375,-2.34375 3.09375,0 4.82812,2.1875 l 0.14063,-1.875 h 2.64062 v 16.5 q 0,3.28125 -1.95312,5.17188 -1.9375,1.89062 -5.21875,1.89062 -1.82813,0 -3.57813,-0.78125 -1.75,-0.78125 -2.67187,-2.14062 l 1.5,-1.73438 q 1.85937,2.29688 4.54687,2.29688 2.10938,0 3.28125,-1.1875 1.1875,-1.1875 1.1875,-3.34375 v -1.45313 q -1.73437,2 -4.73437,2 -2.96875,0 -4.8125,-2.39062 -1.82813,-2.39063 -1.82813,-6.51563 z m 2.90625,0.32813 q 0,2.85937 1.17188,4.5 1.17187,1.625 3.28125,1.625 2.73437,0 4.01562,-2.48438 v -7.71875 q -1.32812,-2.42187 -3.98437,-2.42187 -2.10938,0 -3.29688,1.64062 -1.1875,1.64063 -1.1875,4.85938 z"
     fill-rule="nonzero"
     id="path882"
     inkscape:connector-curvature="0"
     style="opacity:1;stop-opacity:1" />
  <path
     fill="#ffffff"
     d="m 201.48581,705.90481 q -3.85937,-1.10938 -5.625,-2.71875 -1.75,-1.625 -1.75,-4 0,-2.6875 2.14063,-4.4375 2.15625,-1.76563 5.59375,-1.76563 2.34375,0 4.17187,0.90625 1.84375,0.90625 2.84375,2.5 1.01563,1.59375 1.01563,3.48438 h -3.01563 q 0,-2.0625 -1.3125,-3.23438 -1.3125,-1.1875 -3.70312,-1.1875 -2.21875,0 -3.46875,0.98438 -1.23438,0.96875 -1.23438,2.70312 0,1.39063 1.17188,2.35938 1.1875,0.95312 4.01562,1.75 2.84375,0.79687 4.4375,1.76562 1.60938,0.95313 2.375,2.23438 0.78125,1.28125 0.78125,3.01562 0,2.76563 -2.15625,4.4375 -2.15625,1.65625 -5.76562,1.65625 -2.34375,0 -4.375,-0.89062 -2.03125,-0.90625 -3.14063,-2.46875 -1.09375,-1.5625 -1.09375,-3.54688 h 3.01563 q 0,2.0625 1.51562,3.26563 1.53125,1.1875 4.07813,1.1875 2.375,0 3.64062,-0.96875 1.26563,-0.96875 1.26563,-2.64063 0,-1.67187 -1.17188,-2.57812 -1.17187,-0.92188 -4.25,-1.8125 z m 17.35938,5.90625 3.9375,-12.67188 h 3.09375 l -6.79688,19.51563 q -1.57812,4.21875 -5.01562,4.21875 l -0.54688,-0.0469 -1.07812,-0.20312 v -2.34375 l 0.78125,0.0625 q 1.46875,0 2.28125,-0.59375 0.82812,-0.59375 1.35937,-2.17188 l 0.64063,-1.71875 -6.03125,-16.71875 h 3.15625 z m 19.45312,-0.25 q 0,-1.17188 -0.89062,-1.8125 -0.875,-0.65625 -3.07813,-1.125 -2.1875,-0.46875 -3.48437,-1.125 -1.28125,-0.65625 -1.90625,-1.5625 -0.60938,-0.90625 -0.60938,-2.15625 0,-2.07813 1.75,-3.51563 1.76563,-1.4375 4.5,-1.4375 2.875,0 4.65625,1.48438 1.79688,1.48437 1.79688,3.79687 h -2.90625 q 0,-1.1875 -1.01563,-2.04687 -1,-0.85938 -2.53125,-0.85938 -1.57812,0 -2.46875,0.6875 -0.89062,0.6875 -0.89062,1.79688 0,1.04687 0.82812,1.57812 0.82813,0.53125 2.98438,1.01563 2.17187,0.48437 3.51562,1.15625 1.34375,0.67187 1.98438,1.625 0.65625,0.9375 0.65625,2.29687 0,2.26563 -1.8125,3.64063 -1.8125,1.35937 -4.70313,1.35937 -2.03125,0 -3.59375,-0.71875 -1.5625,-0.71875 -2.45312,-2 -0.875,-1.29687 -0.875,-2.79687 h 2.89062 q 0.0781,1.45312 1.15625,2.3125 1.09375,0.84375 2.875,0.84375 1.64063,0 2.625,-0.65625 1,-0.67188 1,-1.78125 z m 10.57813,-16.51563 v 4.09375 h 3.15625 v 2.23438 h -3.15625 v 10.48437 q 0,1.01563 0.42187,1.53125 0.42188,0.5 1.4375,0.5 0.5,0 1.375,-0.1875 v 2.34375 q -1.14062,0.3125 -2.21875,0.3125 -1.9375,0 -2.92187,-1.17187 -0.98438,-1.17188 -0.98438,-3.32813 v -10.48437 h -3.07812 v -2.23438 h 3.07812 v -4.09375 z m 13.54687,21.3125 q -3.4375,0 -5.59375,-2.25 -2.15625,-2.26562 -2.15625,-6.04687 v -0.53125 q 0,-2.51563 0.95313,-4.48438 0.96875,-1.98437 2.6875,-3.09375 1.73437,-1.125 3.75,-1.125 3.29687,0 5.125,2.17188 1.82812,2.17187 1.82812,6.21875 v 1.20312 h -11.45312 q 0.0625,2.5 1.45312,4.04688 1.40625,1.53125 3.5625,1.53125 1.53125,0 2.59375,-0.625 1.0625,-0.625 1.85938,-1.65625 l 1.76562,1.375 q -2.125,3.26562 -6.375,3.26562 z m -0.35937,-15.15625 q -1.75,0 -2.9375,1.28125 -1.1875,1.26563 -1.46875,3.5625 h 8.46875 v -0.21875 q -0.125,-2.20312 -1.1875,-3.40625 -1.0625,-1.21875 -2.875,-1.21875 z m 13.01562,-2.0625 0.0781,1.875 q 1.85937,-2.1875 5.01562,-2.1875 3.54688,0 4.82813,2.71875 0.84375,-1.21875 2.1875,-1.96875 1.35937,-0.75 3.20312,-0.75 5.5625,0 5.65625,5.89063 v 11.32812 h -2.89062 v -11.15625 q 0,-1.8125 -0.82813,-2.70312 -0.82812,-0.90625 -2.78125,-0.90625 -1.60937,0 -2.67187,0.96875 -1.0625,0.95312 -1.23438,2.57812 v 11.21875 h -2.90625 v -11.07812 q 0,-3.6875 -3.60937,-3.6875 -2.84375,0 -3.89063,2.42187 v 12.34375 h -2.89062 v -16.90625 z"
     fill-rule="nonzero"
     id="path884"
     inkscape:connector-curvature="0"
     style="opacity:1;stop-opacity:1" />
  <path
     fill="#000000"
     fill-opacity="0.0"
     d="m 390.36221,191.85826 c 59.75592,0 89.63385,49.62991 119.51184,99.25983 29.87793,49.62991 59.75586,99.25986 119.51178,99.25986"
     fill-rule="evenodd"
     id="path886"
     inkscape:connector-curvature="0"
     style="opacity:1;stop-opacity:1" />
  <path
     stroke="#5e5e5e"
     stroke-width="3.0"
     stroke-linejoin="round"
     stroke-linecap="butt"
     d="m 390.36221,191.85826 c 59.75592,0 89.63385,49.62991 119.51184,99.25983 14.93897,24.81497 29.87793,49.62991 48.55164,68.24112 9.33685,9.30566 19.60748,17.0603 31.27844,22.48859 5.83557,2.71411 12.02124,4.84668 18.61542,6.30072 0.82421,0.1817 1.65496,0.35284 2.49206,0.51324 0.20929,0.04 0.41895,0.0795 0.62909,0.11823 l 0.0159,0.003"
     fill-rule="evenodd"
     id="path888"
     inkscape:connector-curvature="0"
     style="opacity:1;stop-opacity:1" />
  <path
     fill="#5e5e5e"
     stroke="#5e5e5e"
     stroke-width="3.0"
     stroke-linecap="butt"
     d="m 611.01756,393.71856 13.99982,-3.72925 -13.12158,-6.14215 z"
     fill-rule="evenodd"
     id="path890"
     inkscape:connector-curvature="0"
     style="opacity:1;stop-opacity:1" />
  <path
     fill="#000000"
     fill-opacity="0.0"
     d="m 390.36221,429.09186 c 55.48486,0 83.22565,0.0158 110.96973,0.0315 27.74408,0.0157 55.49152,0.0315 110.98303,0.0315"
     fill-rule="evenodd"
     id="path892"
     inkscape:connector-curvature="0"
     style="opacity:1;stop-opacity:1" />
  <path
     stroke="#5e5e5e"
     stroke-width="3.0"
     stroke-linejoin="round"
     stroke-linecap="butt"
     d="m 390.36221,429.09186 c 55.4848,0 83.22565,0.0158 110.96973,0.0315 13.87207,0.008 27.74493,0.0157 45.08618,0.0216 8.67072,0.003 18.20844,0.005 29.04675,0.007 l 18.8501,0.001"
     fill-rule="evenodd"
     id="path894"
     inkscape:connector-curvature="0"
     style="opacity:1;stop-opacity:1" />
  <path
     fill="#5e5e5e"
     stroke="#5e5e5e"
     stroke-width="3.0"
     stroke-linecap="butt"
     d="m 594.3146,434.10876 13.61468,-4.95422 -13.61395,-4.95618 z"
     fill-rule="evenodd"
     id="path896"
     inkscape:connector-curvature="0"
     style="opacity:1;stop-opacity:1" />
  <path
     fill="#000000"
     fill-opacity="0.0"
     d="m 390.36221,666.32546 c 59.25983,0 88.88977,-49.7323 118.51971,-99.4646 29.62989,-49.73224 59.25983,-99.46454 118.51965,-99.46454"
     fill-rule="evenodd"
     id="path898"
     inkscape:connector-curvature="0"
     style="opacity:1;stop-opacity:1" />
  <path
     stroke="#5e5e5e"
     stroke-width="3.0"
     stroke-linejoin="round"
     stroke-linecap="butt"
     d="m 390.36221,666.32546 c 59.25983,0 88.88977,-49.7323 118.51971,-99.4646 14.81495,-24.86615 29.62989,-49.73224 48.14862,-68.3819 9.25934,-9.32477 19.44458,-17.09546 31.01886,-22.53491 5.78705,-2.71973 11.92133,-4.85669 18.46076,-6.31366 0.81744,-0.18213 1.64117,-0.35364 2.47137,-0.51434 l 0.49359,-0.0937"
     fill-rule="evenodd"
     id="path900"
     inkscape:connector-curvature="0"
     style="opacity:1;stop-opacity:1" />
  <path
     fill="#5e5e5e"
     stroke="#5e5e5e"
     stroke-width="3.0"
     stroke-linecap="butt"
     d="m 609.92282,473.95726 13.11096,-6.16473 -14.00622,-3.70514 z"
     fill-rule="evenodd"
     id="path902"
     inkscape:connector-curvature="0"
     style="opacity:1;stop-opacity:1" />
  <path
     fill="#a7a7a7"
     d="m 1048.378,337.23361 h 290.3622 V 520.9501 H 1048.378 Z"
     fill-rule="evenodd"
     id="path904"
     inkscape:connector-curvature="0"
     style="opacity:1;stop-opacity:1" />
  <path
     fill="#ffffff"
     d="m 1133.9654,421.81186 h -3 v -22.75 h 3 z m 7.7656,-16.90625 0.094,2.125 q 1.9375,-2.4375 5.0625,-2.4375 5.3594,0 5.4062,6.04687 v 11.17188 h -2.8906 v -11.1875 q -0.016,-1.82813 -0.8437,-2.70313 -0.8125,-0.875 -2.5469,-0.875 -1.4063,0 -2.4688,0.75 -1.0625,0.75 -1.6562,1.96875 v 12.04688 h -2.8906 v -16.90625 z m 20.5,12.98437 4.1875,-12.98437 h 2.9532 l -6.0625,16.90625 h -2.2032 l -6.125,-16.90625 h 2.9532 z m 16.7344,4.23438 q -3.4375,0 -5.5937,-2.25 -2.1563,-2.26563 -2.1563,-6.04688 v -0.53125 q 0,-2.51562 0.9531,-4.48437 0.9688,-1.98438 2.6875,-3.09375 1.7344,-1.125 3.75,-1.125 3.2969,0 5.125,2.17187 1.8282,2.17188 1.8282,6.21875 v 1.20313 h -11.4532 q 0.062,2.5 1.4532,4.04687 1.4062,1.53125 3.5625,1.53125 1.5312,0 2.5937,-0.625 1.0625,-0.625 1.8594,-1.65625 l 1.7656,1.375 q -2.125,3.26563 -6.375,3.26563 z m -0.3594,-15.15625 q -1.75,0 -2.9375,1.28125 -1.1875,1.26562 -1.4687,3.5625 h 8.4687 v -0.21875 q -0.125,-2.20313 -1.1875,-3.40625 -1.0625,-1.21875 -2.875,-1.21875 z m 13.0313,-2.0625 0.094,2.125 q 1.9375,-2.4375 5.0625,-2.4375 5.3594,0 5.4063,6.04687 v 11.17188 h -2.8906 v -11.1875 q -0.016,-1.82813 -0.8438,-2.70313 -0.8125,-0.875 -2.5469,-0.875 -1.4062,0 -2.4687,0.75 -1.0625,0.75 -1.6563,1.96875 v 12.04688 h -2.8906 v -16.90625 z m 18.8437,-4.09375 v 4.09375 h 3.1563 v 2.23437 h -3.1563 v 10.48438 q 0,1.01562 0.4219,1.53125 0.4219,0.5 1.4375,0.5 0.5,0 1.375,-0.1875 v 2.34375 q -1.1406,0.3125 -2.2187,0.3125 -1.9375,0 -2.9219,-1.17188 -0.9844,-1.17187 -0.9844,-3.32812 v -10.48438 h -3.0781 v -2.23437 h 3.0781 v -4.09375 z m 5.4532,12.39062 q 0,-2.48437 0.9687,-4.46875 0.9844,-1.98437 2.7188,-3.0625 1.75,-1.07812 3.9843,-1.07812 3.4532,0 5.5782,2.39062 2.1406,2.39063 2.1406,6.35938 v 0.20312 q 0,2.46875 -0.9531,4.4375 -0.9375,1.95313 -2.7032,3.04688 -1.75,1.09375 -4.0312,1.09375 -3.4375,0 -5.5781,-2.39063 -2.125,-2.39062 -2.125,-6.32812 z m 2.9062,0.34375 q 0,2.8125 1.2969,4.51563 1.3125,1.70312 3.5,1.70312 2.2031,0 3.5,-1.71875 1.2969,-1.73437 1.2969,-4.84375 0,-2.78125 -1.3282,-4.5 -1.3125,-1.73437 -3.5,-1.73437 -2.1406,0 -3.4531,1.70312 -1.3125,1.70313 -1.3125,4.875 z m 24.2813,-6.04687 q -0.6563,-0.10938 -1.4219,-0.10938 -2.8438,0 -3.8594,2.42188 v 12 h -2.8906 v -16.90625 h 2.8125 l 0.047,1.95312 q 1.4218,-2.26562 4.0312,-2.26562 0.8438,0 1.2813,0.21875 z m 8.4687,10.07812 3.9375,-12.67187 h 3.0938 l -6.7969,19.51562 q -1.5781,4.21875 -5.0156,4.21875 l -0.5469,-0.0469 -1.0781,-0.20313 v -2.34375 l 0.7812,0.0625 q 1.4688,0 2.2813,-0.59375 0.8281,-0.59375 1.3593,-2.17187 l 0.6407,-1.71875 -6.0313,-16.71875 h 3.1563 z"
     fill-rule="nonzero"
     id="path906"
     inkscape:connector-curvature="0"
     style="opacity:1;stop-opacity:1" />
  <path
     fill="#ffffff"
     d="m 1137.0045,437.06186 7.4375,18.5625 7.4375,-18.5625 h 3.8906 v 22.75 h -3 v -8.85938 l 0.2813,-9.5625 -7.4688,18.42188 h -2.2968 l -7.4532,-18.375 0.2969,9.51562 v 8.85938 h -3 v -22.75 z m 34.0469,22.75 q -0.25,-0.5 -0.4063,-1.78125 -2.0156,2.09375 -4.8125,2.09375 -2.5,0 -4.1093,-1.40625 -1.5938,-1.42188 -1.5938,-3.59375 0,-2.64063 2,-4.09375 2.0156,-1.46875 5.6563,-1.46875 h 2.8125 v -1.32813 q 0,-1.51562 -0.9063,-2.40625 -0.9062,-0.90625 -2.6719,-0.90625 -1.5468,0 -2.5937,0.78125 -1.0469,0.78125 -1.0469,1.89063 h -2.9062 q 0,-1.26563 0.8906,-2.4375 0.9062,-1.1875 2.4375,-1.875 1.5469,-0.6875 3.3906,-0.6875 2.9219,0 4.5781,1.46875 1.6563,1.45312 1.7188,4.01562 v 7.78125 q 0,2.32813 0.5937,3.70313 v 0.25 z m -4.7969,-2.20313 q 1.3594,0 2.5781,-0.70312 1.2188,-0.70313 1.7657,-1.82813 v -3.46875 h -2.2657 q -5.3125,0 -5.3125,3.10938 0,1.35937 0.9063,2.125 0.9062,0.76562 2.3281,0.76562 z m 14.5,-14.70312 0.094,2.125 q 1.9375,-2.4375 5.0625,-2.4375 5.3593,0 5.4062,6.04687 v 11.17188 h -2.8906 v -11.1875 q -0.016,-1.82813 -0.8438,-2.70313 -0.8125,-0.875 -2.5468,-0.875 -1.4063,0 -2.4688,0.75 -1.0625,0.75 -1.6562,1.96875 v 12.04688 h -2.8907 v -16.90625 z m 25.3594,16.90625 q -0.25,-0.5 -0.4063,-1.78125 -2.0156,2.09375 -4.8125,2.09375 -2.5,0 -4.1093,-1.40625 -1.5938,-1.42188 -1.5938,-3.59375 0,-2.64063 2,-4.09375 2.0156,-1.46875 5.6563,-1.46875 h 2.8125 v -1.32813 q 0,-1.51562 -0.9063,-2.40625 -0.9062,-0.90625 -2.6719,-0.90625 -1.5468,0 -2.5937,0.78125 -1.0469,0.78125 -1.0469,1.89063 h -2.9062 q 0,-1.26563 0.8906,-2.4375 0.9062,-1.1875 2.4375,-1.875 1.5469,-0.6875 3.3906,-0.6875 2.9219,0 4.5781,1.46875 1.6563,1.45312 1.7188,4.01562 v 7.78125 q 0,2.32813 0.5937,3.70313 v 0.25 z m -4.7969,-2.20313 q 1.3594,0 2.5781,-0.70312 1.2188,-0.70313 1.7657,-1.82813 v -3.46875 h -2.2657 q -5.3125,0 -5.3125,3.10938 0,1.35937 0.9063,2.125 0.9062,0.76562 2.3281,0.76562 z m 11.0781,-6.39062 q 0,-3.95313 1.8282,-6.28125 1.8281,-2.34375 4.8437,-2.34375 3.0938,0 4.8281,2.1875 l 0.1407,-1.875 h 2.6406 v 16.5 q 0,3.28125 -1.9531,5.17187 -1.9375,1.89063 -5.2188,1.89063 -1.8281,0 -3.5781,-0.78125 -1.75,-0.78125 -2.6719,-2.14063 l 1.5,-1.73437 q 1.8594,2.29687 4.5469,2.29687 2.1094,0 3.2812,-1.1875 1.1875,-1.1875 1.1875,-3.34375 v -1.45312 q -1.7343,2 -4.7343,2 -2.9688,0 -4.8125,-2.39063 -1.8282,-2.39062 -1.8282,-6.51562 z m 2.9063,0.32812 q 0,2.85938 1.1719,4.5 1.1718,1.625 3.2812,1.625 2.7344,0 4.0156,-2.48437 v -7.71875 q -1.3281,-2.42188 -3.9843,-2.42188 -2.1094,0 -3.2969,1.64063 -1.1875,1.64062 -1.1875,4.85937 z m 22.75,8.57813 q -3.4375,0 -5.5938,-2.25 -2.1562,-2.26563 -2.1562,-6.04688 v -0.53125 q 0,-2.51562 0.9531,-4.48437 0.9688,-1.98438 2.6875,-3.09375 1.7344,-1.125 3.75,-1.125 3.2969,0 5.125,2.17187 1.8281,2.17188 1.8281,6.21875 v 1.20313 h -11.4531 q 0.062,2.5 1.4531,4.04687 1.4063,1.53125 3.5625,1.53125 1.5313,0 2.5938,-0.625 1.0625,-0.625 1.8594,-1.65625 l 1.7656,1.375 q -2.125,3.26563 -6.375,3.26563 z m -0.3594,-15.15625 q -1.75,0 -2.9375,1.28125 -1.1875,1.26562 -1.4687,3.5625 h 8.4687 v -0.21875 q -0.125,-2.20313 -1.1875,-3.40625 -1.0625,-1.21875 -2.875,-1.21875 z m 18.4688,0.53125 q -0.6563,-0.10938 -1.4219,-0.10938 -2.8438,0 -3.8594,2.42188 v 12 h -2.8906 v -16.90625 h 2.8125 l 0.047,1.95312 q 1.4218,-2.26562 4.0312,-2.26562 0.8438,0 1.2813,0.21875 z"
     fill-rule="nonzero"
     id="path908"
     inkscape:connector-curvature="0"
     style="opacity:1;stop-opacity:1" />
  <path
     fill="#000000"
     fill-opacity="0.0"
     d="m 878.27026,429.09186 c 42.5267,0 63.7897,0.0158 85.0535,0.0315 21.2638,0.0157 42.52844,0.0315 85.05694,0.0315"
     fill-rule="evenodd"
     id="path910"
     inkscape:connector-curvature="0"
     style="opacity:1;stop-opacity:1" />
  <path
     stroke="#5e5e5e"
     stroke-width="3.0"
     stroke-linejoin="round"
     stroke-linecap="butt"
     d="m 878.27026,429.09186 c 42.5269,0 63.7897,0.0158 85.0535,0.0315 10.6318,0.008 21.264,0.0157 34.5542,0.0216 6.64514,0.003 13.95474,0.005 22.26114,0.007 l 10.2416,9.8e-4"
     fill-rule="evenodd"
     id="path912"
     inkscape:connector-curvature="0"
     style="opacity:1;stop-opacity:1" />
  <path
     fill="#5e5e5e"
     stroke="#5e5e5e"
     stroke-width="3.0"
     stroke-linecap="butt"
     d="m 1030.3802,434.10831 13.6147,-4.95386 -13.6138,-4.95654 z"
     fill-rule="evenodd"
     id="path914"
     inkscape:connector-curvature="0"
     style="opacity:1;stop-opacity:1" />
  <path
     fill="#a7a7a7"
     d="m 1098.7441,652.83371 v 0 c 0,-11.6366 42.4501,-21.06995 94.8148,-21.06995 52.3649,0 94.8148,9.43335 94.8148,21.06995 v 84.27985 c 0,11.63666 -42.4499,21.06995 -94.8148,21.06995 -52.3647,0 -94.8148,-9.43329 -94.8148,-21.06995 z"
     fill-rule="evenodd"
     id="path916"
     inkscape:connector-curvature="0"
     style="opacity:1;stop-opacity:1" />
  <path
     fill="#000000"
     fill-opacity="0.0"
     d="m 1288.3737,652.83371 v 0 c 0,11.63666 -42.4499,21.07001 -94.8148,21.07001 -52.3648,0 -94.8148,-9.43335 -94.8148,-21.07001"
     fill-rule="evenodd"
     id="path918"
     inkscape:connector-curvature="0"
     style="opacity:1;stop-opacity:1" />
  <path
     fill="#000000"
     fill-opacity="0.0"
     d="m 1098.7441,652.83371 v 0 c 0,-11.6366 42.4501,-21.06995 94.8148,-21.06995 52.3649,0 94.8148,9.43335 94.8148,21.06995 v 84.27985 c 0,11.63666 -42.4499,21.06995 -94.8148,21.06995 -52.3647,0 -94.8148,-9.43329 -94.8148,-21.06995 z"
     fill-rule="evenodd"
     id="path920"
     inkscape:connector-curvature="0"
     style="opacity:1;stop-opacity:1" />
  <path
     stroke="#ffffff"
     stroke-width="4.0"
     stroke-linejoin="round"
     stroke-linecap="butt"
     d="m 1288.3737,652.83371 v 0 c 0,11.63666 -42.4499,21.07001 -94.8148,21.07001 -52.3648,0 -94.8148,-9.43335 -94.8148,-21.07001"
     fill-rule="evenodd"
     id="path922"
     inkscape:connector-curvature="0"
     style="opacity:1;stop-opacity:1" />
  <path
     stroke="#ffffff"
     stroke-width="4.0"
     stroke-linejoin="round"
     stroke-linecap="butt"
     d="m 1098.7441,652.83371 v 0 c 0,-11.6366 42.4501,-21.06995 94.8148,-21.06995 52.3649,0 94.8148,9.43335 94.8148,21.06995 v 84.27985 c 0,11.63666 -42.4499,21.06995 -94.8148,21.06995 -52.3647,0 -94.8148,-9.43329 -94.8148,-21.06995 z"
     fill-rule="evenodd"
     id="path924"
     inkscape:connector-curvature="0"
     style="opacity:1;stop-opacity:1" />
  <path
     fill="#ffffff"
     d="m 1133.9652,717.22861 h -3 v -22.75 h 3 z m 7.7656,-16.90625 0.094,2.125 q 1.9375,-2.4375 5.0625,-2.4375 5.3593,0 5.4062,6.04687 v 11.17188 h -2.8906 v -11.1875 q -0.016,-1.82813 -0.8438,-2.70313 -0.8125,-0.875 -2.5468,-0.875 -1.4063,0 -2.4688,0.75 -1.0625,0.75 -1.6562,1.96875 v 12.04688 h -2.8907 v -16.90625 z m 20.5,12.98437 4.1875,-12.98437 h 2.9531 l -6.0625,16.90625 h -2.2031 l -6.125,-16.90625 h 2.9531 z m 16.7344,4.23438 q -3.4375,0 -5.5938,-2.25 -2.1562,-2.26563 -2.1562,-6.04688 v -0.53125 q 0,-2.51562 0.9531,-4.48437 0.9688,-1.98438 2.6875,-3.09375 1.7344,-1.125 3.75,-1.125 3.2969,0 5.125,2.17187 1.8281,2.17188 1.8281,6.21875 v 1.20313 h -11.4531 q 0.062,2.5 1.4531,4.04687 1.4063,1.53125 3.5625,1.53125 1.5313,0 2.5938,-0.625 1.0625,-0.625 1.8594,-1.65625 l 1.7656,1.375 q -2.125,3.26563 -6.375,3.26563 z m -0.3594,-15.15625 q -1.75,0 -2.9375,1.28125 -1.1875,1.26562 -1.4687,3.5625 h 8.4687 v -0.21875 q -0.125,-2.20313 -1.1875,-3.40625 -1.0625,-1.21875 -2.875,-1.21875 z m 13.0313,-2.0625 0.094,2.125 q 1.9375,-2.4375 5.0625,-2.4375 5.3594,0 5.4063,6.04687 v 11.17188 h -2.8907 v -11.1875 q -0.016,-1.82813 -0.8437,-2.70313 -0.8125,-0.875 -2.5469,-0.875 -1.4062,0 -2.4687,0.75 -1.0625,0.75 -1.6563,1.96875 v 12.04688 h -2.8906 v -16.90625 z m 18.8437,-4.09375 v 4.09375 h 3.1563 v 2.23437 h -3.1563 v 10.48438 q 0,1.01562 0.4219,1.53125 0.4219,0.5 1.4375,0.5 0.5,0 1.375,-0.1875 v 2.34375 q -1.1406,0.3125 -2.2188,0.3125 -1.9375,0 -2.9218,-1.17188 -0.9844,-1.17187 -0.9844,-3.32812 v -10.48438 h -3.0781 v -2.23437 h 3.0781 v -4.09375 z m 5.4531,12.39062 q 0,-2.48437 0.9688,-4.46875 0.9844,-1.98437 2.7187,-3.0625 1.75,-1.07812 3.9844,-1.07812 3.4531,0 5.5781,2.39062 2.1407,2.39063 2.1407,6.35938 v 0.20312 q 0,2.46875 -0.9532,4.4375 -0.9375,1.95313 -2.7031,3.04688 -1.75,1.09375 -4.0312,1.09375 -3.4375,0 -5.5782,-2.39063 -2.125,-2.39062 -2.125,-6.32812 z m 2.9063,0.34375 q 0,2.8125 1.2969,4.51563 1.3125,1.70312 3.5,1.70312 2.2031,0 3.5,-1.71875 1.2968,-1.73437 1.2968,-4.84375 0,-2.78125 -1.3281,-4.5 -1.3125,-1.73437 -3.5,-1.73437 -2.1406,0 -3.4531,1.70312 -1.3125,1.70313 -1.3125,4.875 z m 24.2812,-6.04687 q -0.6562,-0.10938 -1.4218,-0.10938 -2.8438,0 -3.8594,2.42188 v 12 h -2.8906 v -16.90625 h 2.8125 l 0.047,1.95312 q 1.4219,-2.26562 4.0313,-2.26562 0.8437,0 1.2812,0.21875 z m 8.4688,10.07812 3.9375,-12.67187 h 3.0937 l -6.7968,19.51562 q -1.5782,4.21875 -5.0157,4.21875 l -0.5468,-0.0469 -1.0782,-0.20313 v -2.34375 l 0.7813,0.0625 q 1.4687,0 2.2812,-0.59375 0.8282,-0.59375 1.3594,-2.17187 l 0.6406,-1.71875 -6.0312,-16.71875 h 3.1562 z"
     fill-rule="nonzero"
     id="path926"
     inkscape:connector-curvature="0"
     style="opacity:1;stop-opacity:1" />
  <path
     fill="#000000"
     fill-opacity="0.0"
     d="m 1193.5591,520.9501 c 0,27.70361 0.016,41.55676 0.032,55.40717 0.016,13.85034 0.032,27.69799 0.032,55.39599"
     fill-rule="evenodd"
     id="path928"
     inkscape:connector-curvature="0"
     style="opacity:1;stop-opacity:1" />
  <path
     stroke="#5e5e5e"
     stroke-width="3.0"
     stroke-linejoin="round"
     stroke-linecap="butt"
     d="m 1193.5591,520.9501 c 0,27.70361 0.016,41.55676 0.032,55.40717 0.01,6.92523 0.016,13.84973 0.022,22.50518 0,4.32764 0.01,9.0882 0.01,14.49781 v 0.393"
     fill-rule="evenodd"
     id="path930"
     inkscape:connector-curvature="0"
     style="opacity:1;stop-opacity:1" />
  <path
     fill="#5e5e5e"
     stroke="#5e5e5e"
     stroke-width="3.0"
     stroke-linecap="butt"
     d="m 1188.6643,613.754 4.9572,13.61359 4.9532,-13.61505 z"
     fill-rule="evenodd"
     id="path932"
     inkscape:connector-curvature="0"
     style="opacity:1;stop-opacity:1" />
  <path
     fill="#4a86e8"
     d="m 1583.8504,100 h 290.3623 v 183.71652 h -290.3623 z"
     fill-rule="evenodd"
     id="path934"
     inkscape:connector-curvature="0"
     style="opacity:1;stop-opacity:1" />
  <path
     fill="#ffffff"
     d="m 1664.1175,180.82828 7.4375,18.5625 7.4375,-18.5625 h 3.8906 v 22.75 h -3 v -8.85937 l 0.2813,-9.5625 -7.4688,18.42187 h -2.2968 l -7.4532,-18.375 0.2969,9.51563 v 8.85937 h -3 v -22.75 z m 34.0469,22.75 q -0.25,-0.5 -0.4063,-1.78125 -2.0156,2.09375 -4.8125,2.09375 -2.5,0 -4.1093,-1.40625 -1.5938,-1.42187 -1.5938,-3.59375 0,-2.64062 2,-4.09375 2.0156,-1.46875 5.6563,-1.46875 h 2.8125 v -1.32812 q 0,-1.51563 -0.9063,-2.40625 -0.9062,-0.90625 -2.6719,-0.90625 -1.5468,0 -2.5937,0.78125 -1.0469,0.78125 -1.0469,1.89062 h -2.9062 q 0,-1.26562 0.8906,-2.4375 0.9062,-1.1875 2.4375,-1.875 1.5469,-0.6875 3.3906,-0.6875 2.9219,0 4.5781,1.46875 1.6563,1.45313 1.7188,4.01563 v 7.78125 q 0,2.32812 0.5937,3.70312 v 0.25 z m -4.7969,-2.20312 q 1.3594,0 2.5781,-0.70313 1.2188,-0.70312 1.7657,-1.82812 v -3.46875 h -2.2657 q -5.3125,0 -5.3125,3.10937 0,1.35938 0.9063,2.125 0.9062,0.76563 2.3281,0.76563 z m 19.9375,-12.10938 q -0.6562,-0.10937 -1.4219,-0.10937 -2.8437,0 -3.8593,2.42187 v 12 h -2.8907 v -16.90625 h 2.8125 l 0.047,1.95313 q 1.4219,-2.26563 4.0313,-2.26563 0.8437,0 1.2812,0.21875 z m 7.375,6.48438 -1.8125,1.89062 v 5.9375 h -2.8906 v -24 h 2.8906 v 14.51563 l 1.5469,-1.85938 5.2656,-5.5625 h 3.5156 l -6.5781,7.0625 7.3438,9.84375 h -3.3907 z m 18.2031,8.14062 q -3.4375,0 -5.5937,-2.25 -2.1563,-2.26562 -2.1563,-6.04687 v -0.53125 q 0,-2.51563 0.9532,-4.48438 0.9687,-1.98437 2.6875,-3.09375 1.7343,-1.125 3.75,-1.125 3.2968,0 5.125,2.17188 1.8281,2.17187 1.8281,6.21875 v 1.20312 h -11.4531 q 0.062,2.5 1.4531,4.04688 1.4062,1.53125 3.5625,1.53125 1.5312,0 2.5937,-0.625 1.0625,-0.625 1.8594,-1.65625 l 1.7656,1.375 q -2.125,3.26562 -6.375,3.26562 z m -0.3593,-15.15625 q -1.75,0 -2.9375,1.28125 -1.1875,1.26563 -1.4688,3.5625 h 8.4688 v -0.21875 q -0.125,-2.20312 -1.1875,-3.40625 -1.0625,-1.21875 -2.875,-1.21875 z m 14.2187,-6.15625 v 4.09375 h 3.1563 v 2.23438 h -3.1563 v 10.48437 q 0,1.01563 0.4219,1.53125 0.4219,0.5 1.4375,0.5 0.5,0 1.375,-0.1875 v 2.34375 q -1.1406,0.3125 -2.2188,0.3125 -1.9375,0 -2.9218,-1.17187 -0.9844,-1.17188 -0.9844,-3.32813 v -10.48437 h -3.0781 v -2.23438 h 3.0781 v -4.09375 z m 9.6719,21 h -2.8906 v -16.90625 h 2.8906 z m -3.125,-21.39062 q 0,-0.70313 0.4219,-1.1875 0.4375,-0.48438 1.2812,-0.48438 0.8438,0 1.2813,0.48438 0.4375,0.48437 0.4375,1.1875 0,0.70312 -0.4375,1.17187 -0.4375,0.46875 -1.2813,0.46875 -0.8437,0 -1.2812,-0.46875 -0.4219,-0.46875 -0.4219,-1.17187 z m 10.4844,4.48437 0.094,2.125 q 1.9375,-2.4375 5.0625,-2.4375 5.3594,0 5.4063,6.04688 v 11.17187 h -2.8907 v -11.1875 q -0.016,-1.82812 -0.8437,-2.70312 -0.8125,-0.875 -2.5469,-0.875 -1.4062,0 -2.4687,0.75 -1.0625,0.75 -1.6563,1.96875 v 12.04687 h -2.8906 v -16.90625 z m 14.2343,8.3125 q 0,-3.95312 1.8282,-6.28125 1.8281,-2.34375 4.8437,-2.34375 3.0938,0 4.8281,2.1875 l 0.1407,-1.875 h 2.6406 v 16.5 q 0,3.28125 -1.9531,5.17188 -1.9375,1.89062 -5.2188,1.89062 -1.8281,0 -3.5781,-0.78125 -1.75,-0.78125 -2.6719,-2.14062 l 1.5,-1.73438 q 1.8594,2.29688 4.5469,2.29688 2.1094,0 3.2812,-1.1875 1.1875,-1.1875 1.1875,-3.34375 v -1.45313 q -1.7343,2 -4.7343,2 -2.9688,0 -4.8125,-2.39062 -1.8282,-2.39063 -1.8282,-6.51563 z m 2.9063,0.32813 q 0,2.85937 1.1719,4.5 1.1718,1.625 3.2812,1.625 2.7344,0 4.0156,-2.48438 v -7.71875 q -1.3281,-2.42187 -3.9843,-2.42187 -2.1094,0 -3.2969,1.64062 -1.1875,1.64063 -1.1875,4.85938 z"
     fill-rule="nonzero"
     id="path936"
     inkscape:connector-curvature="0"
     style="opacity:1;stop-opacity:1" />
  <path
     fill="#4a86e8"
     d="m 1583.8504,337.23361 h 290.3623 V 520.9501 h -290.3623 z"
     fill-rule="evenodd"
     id="path938"
     inkscape:connector-curvature="0"
     style="opacity:1;stop-opacity:1" />
  <path
     fill="#ffffff"
     d="m 1692.6956,430.67126 q -3.8594,-1.10937 -5.625,-2.71875 -1.75,-1.625 -1.75,-4 0,-2.6875 2.1406,-4.4375 2.1563,-1.76562 5.5938,-1.76562 2.3437,0 4.1719,0.90625 1.8437,0.90625 2.8437,2.5 1.0156,1.59375 1.0156,3.48437 h -3.0156 q 0,-2.0625 -1.3125,-3.23437 -1.3125,-1.1875 -3.7031,-1.1875 -2.2188,0 -3.4688,0.98437 -1.2343,0.96875 -1.2343,2.70313 0,1.39062 1.1718,2.35937 1.1875,0.95313 4.0157,1.75 2.8437,0.79688 4.4375,1.76563 1.6093,0.95312 2.375,2.23437 0.7812,1.28125 0.7812,3.01563 0,2.76562 -2.1562,4.4375 -2.1563,1.65625 -5.7657,1.65625 -2.3437,0 -4.375,-0.89063 -2.0312,-0.90625 -3.1406,-2.46875 -1.0937,-1.5625 -1.0937,-3.54687 h 3.0156 q 0,2.0625 1.5156,3.26562 1.5313,1.1875 4.0781,1.1875 2.375,0 3.6407,-0.96875 1.2656,-0.96875 1.2656,-2.64062 0,-1.67188 -1.1719,-2.57813 -1.1719,-0.92187 -4.25,-1.8125 z m 15.75,-10.85937 v 4.09375 h 3.1563 v 2.23437 h -3.1563 v 10.48438 q 0,1.01562 0.4219,1.53125 0.4219,0.5 1.4375,0.5 0.5,0 1.375,-0.1875 v 2.34375 q -1.1406,0.3125 -2.2188,0.3125 -1.9375,0 -2.9218,-1.17188 -0.9844,-1.17187 -0.9844,-3.32812 v -10.48438 h -3.0781 v -2.23437 h 3.0781 v -4.09375 z m 5.4531,12.39062 q 0,-2.48437 0.9688,-4.46875 0.9844,-1.98437 2.7187,-3.0625 1.75,-1.07812 3.9844,-1.07812 3.4531,0 5.5781,2.39062 2.1407,2.39063 2.1407,6.35938 v 0.20312 q 0,2.46875 -0.9532,4.4375 -0.9375,1.95313 -2.7031,3.04688 -1.75,1.09375 -4.0312,1.09375 -3.4375,0 -5.5782,-2.39063 -2.125,-2.39062 -2.125,-6.32812 z m 2.9063,0.34375 q 0,2.8125 1.2969,4.51563 1.3125,1.70312 3.5,1.70312 2.2031,0 3.5,-1.71875 1.2968,-1.73437 1.2968,-4.84375 0,-2.78125 -1.3281,-4.5 -1.3125,-1.73437 -3.5,-1.73437 -2.1406,0 -3.4531,1.70312 -1.3125,1.70313 -1.3125,4.875 z m 24.2812,-6.04687 q -0.6562,-0.10938 -1.4218,-0.10938 -2.8438,0 -3.8594,2.42188 v 12 h -2.8906 v -16.90625 h 2.8125 l 0.047,1.95312 q 1.4219,-2.26562 4.0313,-2.26562 0.8437,0 1.2812,0.21875 z m 9.375,14.625 q -3.4375,0 -5.5937,-2.25 -2.1563,-2.26563 -2.1563,-6.04688 v -0.53125 q 0,-2.51562 0.9532,-4.48437 0.9687,-1.98438 2.6875,-3.09375 1.7343,-1.125 3.75,-1.125 3.2968,0 5.125,2.17187 1.8281,2.17188 1.8281,6.21875 v 1.20313 h -11.4531 q 0.062,2.5 1.4531,4.04687 1.4062,1.53125 3.5625,1.53125 1.5312,0 2.5937,-0.625 1.0625,-0.625 1.8594,-1.65625 l 1.7656,1.375 q -2.125,3.26563 -6.375,3.26563 z m -0.3593,-15.15625 q -1.75,0 -2.9375,1.28125 -1.1875,1.26562 -1.4688,3.5625 h 8.4688 v -0.21875 q -0.125,-2.20313 -1.1875,-3.40625 -1.0625,-1.21875 -2.875,-1.21875 z m 20.1406,10.35937 q 0,-1.17187 -0.8906,-1.8125 -0.875,-0.65625 -3.0782,-1.125 -2.1875,-0.46875 -3.4843,-1.125 -1.2813,-0.65625 -1.9063,-1.5625 -0.6094,-0.90625 -0.6094,-2.15625 0,-2.07812 1.75,-3.51562 1.7657,-1.4375 4.5,-1.4375 2.875,0 4.6563,1.48437 1.7969,1.48438 1.7969,3.79688 h -2.9063 q 0,-1.1875 -1.0156,-2.04688 -1,-0.85937 -2.5313,-0.85937 -1.5781,0 -2.4687,0.6875 -0.8906,0.6875 -0.8906,1.79687 0,1.04688 0.8281,1.57813 0.8281,0.53125 2.9844,1.01562 2.1718,0.48438 3.5156,1.15625 1.3437,0.67188 1.9844,1.625 0.6562,0.9375 0.6562,2.29688 0,2.26562 -1.8125,3.64062 -1.8125,1.35938 -4.7031,1.35938 -2.0313,0 -3.5938,-0.71875 -1.5625,-0.71875 -2.4531,-2 -0.875,-1.29688 -0.875,-2.79688 h 2.8906 q 0.078,1.45313 1.1563,2.3125 1.0937,0.84375 2.875,0.84375 1.6406,0 2.625,-0.65625 1,-0.67187 1,-1.78125 z"
     fill-rule="nonzero"
     id="path940"
     inkscape:connector-curvature="0"
     style="opacity:1;stop-opacity:1" />
  <path
     fill="#4a86e8"
     d="m 1583.8504,574.46719 h 290.3623 v 183.71655 h -290.3623 z"
     fill-rule="evenodd"
     id="path942"
     inkscape:connector-curvature="0"
     style="opacity:1;stop-opacity:1" />
  <path
     fill="#ffffff"
     d="m 1669.6644,667.99856 h -9.5469 v 10.04687 h -3 v -22.75 h 14.0938 v 2.46875 h -11.0938 v 7.78125 h 9.5469 z m 14.7813,8.375 q -1.6875,1.98437 -4.9532,1.98437 -2.7031,0 -4.125,-1.5625 -1.4062,-1.57812 -1.4218,-4.65625 v -11 h 2.8906 v 10.92188 q 0,3.84375 3.125,3.84375 3.3125,0 4.4062,-2.46875 v -12.29688 h 2.8907 v 16.90625 h -2.75 z m 10.3437,1.67187 h -2.8906 v -24 h 2.8906 z m 5.5938,0 v -14.67187 h -2.6719 v -2.23438 h 2.6719 v -1.4375 q 0,-2.82812 1.6093,-4.40625 1.625,-1.57812 4.5782,-1.57812 1.75,0 4.4218,0.95312 l -0.4843,2.4375 q -1.9532,-0.78125 -3.7188,-0.78125 -1.8594,0 -2.6875,0.84375 -0.8125,0.82813 -0.8125,2.5 v 1.46875 h 3.4531 v 2.23438 h -3.4531 v 14.67187 z m 12.0468,0 h -2.9062 v -16.90625 h 2.9062 z m 7.8438,0 h -2.8907 v -24 h 2.8907 z m 7.7656,0 h -2.8906 v -24 h 2.8906 z m 7.3437,-16.90625 0.078,1.875 q 1.8593,-2.1875 5.0156,-2.1875 3.5469,0 4.8281,2.71875 0.8438,-1.21875 2.1875,-1.96875 1.3594,-0.75 3.2031,-0.75 5.5625,0 5.6563,5.89063 v 11.32812 h -2.8906 v -11.15625 q 0,-1.8125 -0.8282,-2.70312 -0.8281,-0.90625 -2.7812,-0.90625 -1.6094,0 -2.6719,0.96875 -1.0625,0.95312 -1.2344,2.57812 v 11.21875 h -2.9062 v -11.07812 q 0,-3.6875 -3.6094,-3.6875 -2.8437,0 -3.8906,2.42187 v 12.34375 h -2.8906 v -16.90625 z m 32.3438,17.21875 q -3.4375,0 -5.5938,-2.25 -2.1562,-2.26562 -2.1562,-6.04687 v -0.53125 q 0,-2.51563 0.9531,-4.48438 0.9688,-1.98437 2.6875,-3.09375 1.7344,-1.125 3.75,-1.125 3.2969,0 5.125,2.17188 1.8281,2.17187 1.8281,6.21875 v 1.20312 h -11.4531 q 0.062,2.5 1.4531,4.04688 1.4063,1.53125 3.5625,1.53125 1.5313,0 2.5938,-0.625 1.0625,-0.625 1.8594,-1.65625 l 1.7656,1.375 q -2.125,3.26562 -6.375,3.26562 z m -0.3594,-15.15625 q -1.75,0 -2.9375,1.28125 -1.1875,1.26563 -1.4687,3.5625 h 8.4687 v -0.21875 q -0.125,-2.20312 -1.1875,-3.40625 -1.0625,-1.21875 -2.875,-1.21875 z m 13.0313,-2.0625 0.094,2.125 q 1.9375,-2.4375 5.0625,-2.4375 5.3594,0 5.4063,6.04688 v 11.17187 h -2.8907 v -11.1875 q -0.016,-1.82812 -0.8437,-2.70312 -0.8125,-0.875 -2.5469,-0.875 -1.4062,0 -2.4687,0.75 -1.0625,0.75 -1.6563,1.96875 v 12.04687 h -2.8906 v -16.90625 z m 18.8437,-4.09375 v 4.09375 h 3.1563 v 2.23438 h -3.1563 v 10.48437 q 0,1.01563 0.4219,1.53125 0.4219,0.5 1.4375,0.5 0.5,0 1.375,-0.1875 v 2.34375 q -1.1406,0.3125 -2.2188,0.3125 -1.9375,0 -2.9218,-1.17187 -0.9844,-1.17188 -0.9844,-3.32813 v -10.48437 h -3.0781 v -2.23438 h 3.0781 v -4.09375 z"
     fill-rule="nonzero"
     id="path944"
     inkscape:connector-curvature="0"
     style="opacity:1;stop-opacity:1" />
  <path
     fill="#000000"
     fill-opacity="0.0"
     d="m 1338.7402,429.09186 c 61.2781,0 91.9183,0.0158 122.5562,0.0315 30.6376,0.0157 61.273,0.0315 122.5462,0.0315"
     fill-rule="evenodd"
     id="path946"
     inkscape:connector-curvature="0"
     style="opacity:1;stop-opacity:1" />
  <path
     stroke="#5e5e5e"
     stroke-width="3.0"
     stroke-linejoin="round"
     stroke-linecap="butt"
     d="m 1338.7402,429.09186 c 61.2781,0 91.9183,0.0158 122.5562,0.0315 15.3188,0.008 30.637,0.0157 49.7849,0.0216 9.5738,0.003 20.1049,0.005 32.0724,0.007 l 22.6889,0.002"
     fill-rule="evenodd"
     id="path948"
     inkscape:connector-curvature="0"
     style="opacity:1;stop-opacity:1" />
  <path
     fill="#5e5e5e"
     stroke="#5e5e5e"
     stroke-width="3.0"
     stroke-linecap="butt"
     d="m 1565.8422,434.10886 13.6146,-4.95428 -13.614,-4.95612 z"
     fill-rule="evenodd"
     id="path950"
     inkscape:connector-curvature="0"
     style="opacity:1;stop-opacity:1" />
</svg>
