<?xml version="1.0" encoding="UTF-8" standalone="no"?>
<svg
   xmlns:dc="http://purl.org/dc/elements/1.1/"
   xmlns:cc="http://creativecommons.org/ns#"
   xmlns:rdf="http://www.w3.org/1999/02/22-rdf-syntax-ns#"
   xmlns:svg="http://www.w3.org/2000/svg"
   xmlns="http://www.w3.org/2000/svg"
   xmlns:sodipodi="http://sodipodi.sourceforge.net/DTD/sodipodi-0.dtd"
   xmlns:inkscape="http://www.inkscape.org/namespaces/inkscape"
   inkscape:version="1.0beta1 (32d4812, 2019-09-19)"
   sodipodi:docname="store-low.svg"
   id="svg190"
   version="1.1"
   viewBox="0 0 4.7601997 4.7601999"
   height="17.991306"
   width="17.991306">
  <metadata
     id="metadata196">
    <rdf:RDF>
      <cc:Work
         rdf:about="">
        <dc:format>image/svg+xml</dc:format>
        <dc:type
           rdf:resource="http://purl.org/dc/dcmitype/StillImage" />
        <dc:title></dc:title>
      </cc:Work>
    </rdf:RDF>
  </metadata>
  <defs
     id="defs194">
    <style
       id="style2">
      .cls-1 {
        fill: none;
      }

      .cls-2 {
        clip-path: url(#clip-path);
      }

      .cls-3 {
        fill: #a42522;
      }

      .cls-4 {
        fill: #dd392c;
      }

      .cls-5 {
        fill: #fff;
      }

      .cls-6 {
        fill: #741113;
      }

      .cls-7 {
        fill: #ad2824;
      }
    </style>
    <clipPath
       id="clip-path">
      <rect
         style="fill:none"
         x="0"
         class="cls-1"
         y="5.8000002"
         width="95.699997"
         height="82"
         id="rect4" />
    </clipPath>
  </defs>
  <sodipodi:namedview
     inkscape:document-rotation="0"
     fit-margin-bottom="0"
     fit-margin-right="0"
     fit-margin-left="0"
     fit-margin-top="0"
     inkscape:current-layer="svg190"
     inkscape:window-maximized="0"
     inkscape:window-y="23"
     inkscape:window-x="0"
     inkscape:cy="9.3347888"
     inkscape:cx="9.4195654"
     inkscape:zoom="22.4"
     showgrid="false"
     id="namedview192"
     inkscape:window-height="907"
     inkscape:window-width="1600"
     inkscape:pageshadow="2"
     inkscape:pageopacity="0"
     guidetolerance="10"
     gridtolerance="10"
     objecttolerance="10"
     borderopacity="1"
     bordercolor="#666666"
     pagecolor="#ffffff" />
  <path
     d="m 4.7600999,2.4230999 c 0,-0.014 10e-5,-0.028 10e-5,-0.043 0,-0.014 -10e-5,-0.028 -10e-5,-0.043 -0.239,-0.139 -0.255,-0.279 -0.053,-0.464 -0.006,-0.026 -0.012,-0.053 -0.018,-0.079 -0.264,-0.075 -0.31,-0.204 -0.153,-0.426 -0.011,-0.024 -0.023,-0.048 -0.035,-0.071 -0.272,-0.012 -0.344,-0.125 -0.239,-0.37499997 -0.016,-0.021 -0.032,-0.042 -0.049,-0.062 -0.268,0.049 -0.362,-0.046 -0.313,-0.313 -0.02,-0.017 -0.041,-0.033 -0.062,-0.049 -0.25,0.105 -0.363,0.033 -0.375,-0.23900003 -0.024,-0.012 -0.047,-0.024 -0.071,-0.035 -0.223,0.157 -0.351,0.111 -0.426,-0.153 -0.026,-0.007 -0.052,-0.012 -0.079,-0.018 -0.185,0.202 -0.325,0.186 -0.464,-0.053 -0.014,0 -0.028,-1e-4 -0.043,-1e-4 -0.014,0 -0.028,1e-4 -0.043,1e-4 -0.139,0.239 -0.279,0.255 -0.464,0.053 -0.027,0.006 -0.053,0.012 -0.079,0.018 -0.075,0.263 -0.204,0.31 -0.426,0.153 -0.024,0.011 -0.048,0.023 -0.071,0.035 -0.012,0.27200003 -0.125,0.34400003 -0.37499997,0.23900003 -0.021,0.016 -0.042,0.032 -0.062,0.049 0.049,0.268 -0.046,0.362 -0.313,0.313 -0.017,0.02 -0.033,0.041 -0.049,0.062 0.105,0.24999997 0.033,0.36299997 -0.23900003,0.37499997 -0.012,0.024 -0.024,0.047 -0.035,0.071 0.157,0.223 0.111,0.351 -0.153,0.426 -0.007,0.026 -0.012,0.053 -0.018,0.079 0.202,0.185 0.186,0.325 -0.053,0.464 0,0.014 -1e-4,0.028 -1e-4,0.043 0,0.014 1e-4,0.028 1e-4,0.043 0.239,0.139 0.255,0.279 0.053,0.464 0.006,0.026 0.012,0.053 0.018,0.079 0.264,0.075 0.31,0.204 0.153,0.426 0.011,0.024 0.023,0.048 0.035,0.071 0.27200003,0.012 0.34400003,0.125 0.23900003,0.375 0.016,0.021 0.032,0.042 0.049,0.062 0.268,-0.049 0.362,0.046 0.313,0.313 0.02,0.017 0.041,0.033 0.062,0.049 0.24999997,-0.105 0.36399997,-0.033 0.37499997,0.239 0.024,0.012 0.047,0.024 0.071,0.035 0.223,-0.157 0.351,-0.111 0.426,0.153 0.026,0.007 0.052,0.012 0.079,0.018 0.185,-0.202 0.325,-0.186 0.464,0.053 0.014,0 0.028,10e-5 0.043,10e-5 0.014,0 0.028,-10e-5 0.043,-10e-5 0.139,-0.239 0.279,-0.255 0.464,-0.053 0.026,-0.006 0.053,-0.012 0.079,-0.018 0.075,-0.264 0.204,-0.31 0.426,-0.153 0.024,-0.011 0.048,-0.023 0.071,-0.035 0.012,-0.272 0.125,-0.344 0.375,-0.239 0.021,-0.016 0.042,-0.032 0.062,-0.049 -0.049,-0.268 0.046,-0.362 0.313,-0.313 0.017,-0.02 0.033,-0.041 0.049,-0.062 -0.105,-0.25 -0.033,-0.364 0.239,-0.375 0.012,-0.024 0.024,-0.047 0.035,-0.071 -0.157,-0.223 -0.111,-0.351 0.153,-0.426 0.007,-0.026 0.012,-0.053 0.018,-0.079 -0.202,-0.185 -0.186,-0.325 0.053,-0.464"
     id="path174"
     inkscape:connector-curvature="0"
     style="fill:#aa0000" />
  <path
     d="m 2.3800999,4.2540999 c -1.033,0 -1.874,-0.841 -1.874,-1.874 0,-1.033 0.841,-1.874 1.874,-1.874 1.033,0 1.874,0.841 1.874,1.874 0,1.033 -0.841,1.874 -1.874,1.874"
     id="path176"
     inkscape:connector-curvature="0"
     style="fill:#d35f5f" />
  <g
     transform="matrix(0.025344,0,0,0.025344,1.1673895,1.1940007)"
     id="g128">
    <g
       id="g23"
       clip-path="url(#clip-path)"
       class="cls-2">
      <g
         id="g21">
        <path
           style="fill:#a42522"
           inkscape:connector-curvature="0"
           id="path9"
           d="M 92,69 C 86.9,71.7 60.5,82.5 54.8,85.5 49.1,88.5 46,88.4 41.6,86.3 37.2,84.2 9,72.7 3.9,70.3 1.4,69.1 0,68.1 0,67.1 v -9.7 c 0,0 36.6,-8 42.6,-10.1 6,-2.1 8,-2.2 13,-0.4 5,1.8 35.1,7.3 40.1,9.1 v 9.5 c 0,1.1 -1.1,2.1 -3.7,3.5 z"
           class="cls-3" />
        <path
           style="fill:#dd392c"
           inkscape:connector-curvature="0"
           id="path11"
           d="M 92,59.3 C 86.9,62 60.5,72.8 54.8,75.8 49.1,78.8 46,78.7 41.6,76.6 37.2,74.5 9,63.1 3.9,60.6 c -5.1,-2.5 -5.2,-4.1 -0.2,-6 5,-1.9 33,-12.9 38.9,-15 5.9,-2.1 8,-2.2 13,-0.4 5,1.8 31.3,12.3 36.3,14.1 5,1.8 5.2,3.4 0.1,6 z"
           class="cls-4" />
        <path
           style="fill:#a42522"
           inkscape:connector-curvature="0"
           id="path13"
           d="M 92,53.2 C 86.9,55.9 60.5,66.7 54.8,69.7 49.1,72.7 46,72.6 41.6,70.5 37.2,68.4 9,57 3.9,54.5 1.4,53.3 0,52.3 0,51.3 v -9.7 c 0,0 36.6,-8 42.6,-10.1 6,-2.1 8,-2.2 13,-0.4 5,1.8 35.1,7.3 40.1,9.1 v 9.6 c 0,1.1 -1.1,2.1 -3.7,3.4 z"
           class="cls-3" />
        <path
           style="fill:#dd392c"
           inkscape:connector-curvature="0"
           id="path15"
           d="M 92,43.5 C 86.9,46.2 60.5,57 54.8,60 49.1,63 46,62.9 41.6,60.8 37.2,58.7 9,47.3 3.9,44.9 c -5.1,-2.4 -5.2,-4.1 -0.2,-6 5,-1.9 33,-13 38.9,-15.1 5.9,-2.1 8,-2.2 13,-0.4 5,1.8 31.3,12.3 36.3,14.1 5,1.8 5.2,3.4 0.1,6 z"
           class="cls-4" />
        <path
           style="fill:#a42522"
           inkscape:connector-curvature="0"
           id="path17"
           d="M 92,36.9 C 86.9,39.6 60.5,50.4 54.8,53.4 49.1,56.4 46,56.3 41.6,54.2 37.2,52.1 9,40.6 3.9,38.2 1.4,37 0,36 0,35 v -9.7 c 0,0 36.6,-8 42.6,-10.1 6,-2.1 8,-2.2 13,-0.4 5,1.8 35.1,7.3 40.1,9.1 v 9.5 c 0,1.1 -1.1,2.1 -3.7,3.5 z"
           class="cls-3" />
        <path
           style="fill:#dd392c"
           inkscape:connector-curvature="0"
           id="path19"
           d="M 92,27.2 C 86.9,29.9 60.5,40.7 54.8,43.7 49.1,46.7 46,46.6 41.6,44.5 37.2,42.4 9,30.9 3.9,28.5 c -5.1,-2.4 -5.2,-4.1 -0.2,-6 5,-1.9 33,-12.9 38.9,-15.1 5.9,-2.2 8,-2.2 13,-0.3 5,1.9 31.3,12.3 36.3,14.1 5,1.8 5.2,3.4 0.1,6 z"
           class="cls-4" />
      </g>
    </g>
    <polygon
       style="fill:#ffffff"
       id="polygon25"
       points="54,15.5 60.4,17.9 52.1,18.7 50.3,23.2 47.3,18.2 37.7,17.4 44.8,14.8 42.7,10.8 49.4,13.4 55.7,11.4 "
       class="cls-5" />
    <polygon
       style="fill:#ffffff"
       id="polygon27"
       points="56.5,29.7 49.8,39.5 34.3,33.1 "
       class="cls-5" />
    <path
       style="fill:#ffffff"
       inkscape:connector-curvature="0"
       id="path29"
       d="m 28.3,20.4 c 6.5,0 11.8,2 11.8,4.6 0,2.6 -5.3,4.6 -11.8,4.6 -6.5,0 -11.8,-2 -11.8,-4.6 0,-2.6 5.3,-4.6 11.8,-4.6 z"
       class="cls-5" />
    <polygon
       style="fill:#741113"
       id="polygon31"
       points="70.2,29.5 70.2,19.1 83.3,24.3 "
       class="cls-6" />
    <polygon
       style="fill:#ad2824"
       id="polygon33"
       points="70.2,19.1 70.2,29.5 68.8,30 55.7,24.8 "
       class="cls-7" />
  </g>
</svg>
